/* XPM */
static char *result[] = {
/* columns rows colors chars-per-pixel */
"64 64 239 2 ",
"   c #161A3A",
".  c #181C3D",
"X  c #181934",
"o  c #39142A",
"O  c #321836",
"+  c #291A3E",
"@  c #1C203E",
"#  c #372335",
"$  c #471528",
"%  c #5A1C2D",
"&  c #541629",
"*  c #501226",
"=  c #47243B",
"-  c #582134",
";  c #6A2635",
":  c #722938",
">  c #7A343D",
",  c #681620",
"<  c #151A44",
"1  c #1B1D43",
"2  c #151C4B",
"3  c #191E4B",
"4  c #161D52",
"5  c #181F50",
"6  c #2B1C45",
"7  c #1B2045",
"8  c #1A214D",
"9  c #1F294C",
"0  c #162153",
"q  c #1B2253",
"w  c #14235B",
"e  c #18295E",
"r  c #242948",
"t  c #262853",
"y  c #2C3455",
"u  c #372F55",
"i  c #152A63",
"p  c #132D6B",
"a  c #162964",
"s  c #17326D",
"d  c #122F71",
"f  c #143373",
"g  c #19357A",
"h  c #15367B",
"j  c #0F3073",
"k  c #2D3268",
"l  c #492849",
"z  c #5A3941",
"x  c #4E2F51",
"c  c #7A374B",
"v  c #6D314C",
"b  c #49386C",
"n  c #4A1E47",
"m  c #3E425E",
"M  c #3B4566",
"N  c #2A4278",
"B  c #3D507B",
"V  c #79455D",
"C  c #754448",
"Z  c #454867",
"A  c #4D5169",
"S  c #4A5275",
"D  c #555A75",
"F  c #54556F",
"G  c #685679",
"H  c #63687E",
"J  c #58617A",
"K  c #872D39",
"L  c #89323E",
"P  c #AC3338",
"I  c #8A3447",
"U  c #973A49",
"Y  c #853A56",
"T  c #963A54",
"R  c #8B2E42",
"E  c #B83E4C",
"W  c #AA3D55",
"Q  c #AA374B",
"!  c #8C3F61",
"~  c #9A4554",
"^  c #87485A",
"/  c #A44B5A",
"(  c #BA4C5D",
")  c #B74959",
"_  c #B7515F",
"`  c #984567",
"'  c #8B526E",
"]  c #A64564",
"[  c #B65667",
"{  c #B95778",
"}  c #AA4F74",
"|  c #986C7D",
" . c #C44B59",
".. c #D2515F",
"X. c #C85267",
"o. c #CF5262",
"O. c #E45D70",
"+. c #D46978",
"@. c #E56772",
"#. c #153B84",
"$. c #1A3B83",
"%. c #153C87",
"&. c #183F93",
"*. c #233C88",
"=. c #313D85",
"-. c #15418F",
";. c #16469D",
":. c #1B469B",
">. c #184496",
",. c #27489B",
"<. c #30488F",
"1. c #1B4AA4",
"2. c #1C4EAC",
"3. c #1847A0",
"4. c #1E52B5",
"5. c #1F53B8",
"6. c #1C4FB1",
"7. c #214DAC",
"8. c #284BA5",
"9. c #2352AC",
"0. c #224FB3",
"q. c #2453B4",
"w. c #2455BA",
"e. c #2559BC",
"r. c #2B5BBD",
"t. c #2C56BA",
"y. c #365CBB",
"u. c #3148A0",
"i. c #3560BF",
"p. c #5A5082",
"a. c #6D4B85",
"s. c #576484",
"d. c #51699A",
"f. c #656B82",
"g. c #637399",
"h. c #787990",
"j. c #475CB5",
"k. c #7058A6",
"l. c #4964A3",
"z. c #526DB4",
"x. c #7275B1",
"c. c #2C5CC3",
"v. c #275AC0",
"b. c #305FC6",
"n. c #2D61C5",
"m. c #3263C6",
"M. c #3465CA",
"N. c #3668CC",
"B. c #3B6ACE",
"V. c #3A66C9",
"C. c #3D6DD1",
"Z. c #3E70D1",
"A. c #456ECE",
"S. c #566AC7",
"D. c #426FD2",
"F. c #4471D4",
"G. c #4673D8",
"H. c #4B77DB",
"J. c #5379D6",
"K. c #5A72C0",
"L. c #507DE1",
"P. c #8D5A8C",
"I. c #94678E",
"U. c #AD6192",
"Y. c #B46F9E",
"T. c #9970B3",
"R. c #AA77B3",
"E. c #A85C95",
"W. c #CB5D80",
"Q. c #CF798E",
"!. c #EF7888",
"~. c #C979A5",
"^. c #987EC1",
"/. c #74819D",
"(. c #7287B3",
"). c #7794D9",
"_. c #6C8CDE",
"`. c #5683E3",
"'. c #5C88E6",
"]. c #648DE7",
"[. c #7A9DE8",
"{. c #858897",
"}. c #B1949D",
"|. c #898DA5",
" X c #8891A5",
".X c #9798A5",
"XX c #8695BA",
"oX c #929CB2",
"OX c #A888A8",
"+X c #B192B2",
"@X c #98A2B7",
"#X c #A8ACB8",
"$X c #B1AAB5",
"%X c #DA899B",
"&X c #E5969D",
"*X c #C7ACB4",
"=X c #D7AFB8",
"-X c #E6A8B1",
";X c #CF82A3",
":X c #8B95D0",
">X c #94A6D1",
",X c #ACB6C9",
"<X c #B5B9C3",
"1X c #AEB4D9",
"2X c #819DE1",
"3X c #94ADE5",
"4X c #9CB3E6",
"5X c #A6BBE8",
"6X c #ABB7E3",
"7X c #B69FC9",
"8X c #CFB6CB",
"9X c #E2BECF",
"0X c #BDC6DD",
"qX c #B8C8EA",
"wX c #ADC1EA",
"eX c #C3C6CD",
"rX c #C7CBD6",
"tX c #D4D6DB",
"yX c #D4CFD5",
"uX c #E7D7DC",
"iX c #EDC9D0",
"pX c #CBD5EB",
"aX c #D6DAE6",
"sX c #D4DDF0",
"dX c #D3CAE3",
"fX c #E9DEE4",
"gX c #DEE1E8",
"hX c #E5E6EB",
"jX c #EEEEEE",
"kX c #E7E5E7",
"lX c #F1E8EB",
"zX c #EBEDF1",
"xX c #E6E8F2",
"cX c #F6EEF1",
"vX c #EEF0F4",
"bX c #F4F4F4",
"nX c #F4F6FA",
"mX c #FCFCFC",
"MX c #F8F7F8",
/* pixels */
"bXbXMXMXMXbXbXMXMXMXMXMXMXMXbXMXMXMXMXMXMXMXbXMXMXMXMXMXMXMXMXMXbXMXmXbXMXMXMXMXbXbXMXmXbXbXMXmXMXMXMXMXMXbXMXMXMXMXMXMXMXMXbXbX",
"jXjXmXmXMXjXMXmXMXjXjXmXmXbXjXMXmXmXjXjXmXmXjXjXmXmXMXjXbXmXmXjXjXmXmXjXjXMXmXMXzXhXxXnXjXzXmXmXbXjXMXmXmXjXjXmXmXbXjXMXmXmXjXjX",
"bXbXMXmXMXMXMXMXMXMXbXMXMXMXMXMXMXMXbXMXmXMXbXMXMXMXMXbXMXmXMXbXMXmXMXMXbXMXmXMXjXl.j._.qXxXMXMXbXMXMXMXMXMXbXMXmXbXbXMXMXMXMXMX",
"mXmXbXjXMXmXMXjXbXmXmXjXjXmXmXbXjXMXmXmXjXjXmXmXjXjXmXmXMXjXbXmXmXjXjXmXmXbXjXbXzX*.*.b.H.`.qXvXMXmXMXjXbXmXmXjXjXmXmXMXjXMXmXmX",
"mXmXbXbXMXmXMXcXbXmXmXbXbXMXmXMXbXbXmXMXbXbXmXmXbXbXMXmXMXjXbXmXmXbXbXMXmXMXjXMXmX$.*.9.w.7.0XbXMXmXMXbXbXmXMXbXbXMXmXbXjXMXmXMX",
"jXbXmXmXbXjXMXmXMXjXkXcXMXbXjXMXmXMXbXjXmXmXjXjXmXmXMXjXMXmXmXjXjXmXmXbXjXMXmXMXcXk *.8.>.N xXmXMXjXMXmXmXjXbXmXmXbXjXmXmXmXjXbX",
"jXjXfXiXdX-X-X&X!.@.O.Q.kXbXjXMXmXMXjXbXmXmXbXjXmXmXMXjXMXmXmXbXjXmXmXbXjXMXmXmXfXx *.*.g D mXmXbXjXMXmXmXjXjXmXmXbXjXMXmXMXjXjX",
"mXmXQ.+.I.] P V C  .X.} }.mXmXbXbXbXmXmXjXbXmXmXbXjXMXmXMXjXbXmXmXbXbXmXmXMXjXbXdX- =.u.8.|.cXjXMXmXMXjXbXmXmXbXjXmXmXMXjXMXmXmX",
"mX8X{ _ ` v = h.z > ` ;X8XnXmXbXjXnXmXmXjXjXmXmXjXjXmXmXMXjXbXmXmXjXjXmXmXMXjXMX,Xx 6 k *.6XMXjXmXmXMXjXbXmXmXjXjXmXmXMXjXbXmXmX",
"jXf.8 t b x u = # r x 8XxXcXbXMXmXMXcXbXmXmXbXbXmXmXMXjXMXmXMXbXbXmXmXbXbXMXMXMX(.-.v ` =.:XmXmXMXjXMXmXMXbXbXmXmXbXbXMXmXMXbXbX",
"gXF < 2 0 w i 4 2 6 n R.cXbXjXMXmXmXcXcXmXmXvXjXmXmXbXjXMXmXmXjXjXmXMXuXjXMXmXMXg.%.=.P.E.x.nXmXbXjXMXmXmXjXbXmXmXbXjXMXmXMXjXjX",
"nXtXh.9   < 2 w a p &.A.T.~.dXbXcXnXnXMXbXMXMXMXMXMXMXMXMXMXMXMXMX*X~ ..@.lXbXbXg.d b V T.R.9XcXMXMXMXbXMXMXMXbXMXMXMXMXMXMXmXMX",
"mXmXbXhX#XH y < 4 4 h 8.r.S.E.Y.7XdXcXMXjXcXmXmXjXjXMXmXMXjXbXmXlXK L U ) %XkXbXS w n R  .W.~.fXmXmXMXjXbXmXmXjXjXmXmXbXjXbXmXmX",
"mXmXbXbXMXmXgX.Xu < 2 w p &.1.k.] E.^.4XsXvXmXmXbXbXMXmXMXbXbXmXyX> z > ; C }.bXt 6 n v W o.!.~.bXmXMXbXbXmXmXbXbXmXmXbXjXMXmXmX",
"jXjXmXmXbXjXMXmXnX<Xh.t 2 4 w j *.p.] } T.:X5XpXmXmXMXjXMXmXmXjX*X; ; - $ % ^ jXO o n : Q X.O.!.-XvXbXmXmXjXbXmXmXbXjXMXmXmXjXbX",
"bXjXmXmXbXbXbXmXmXvXcXMXeXD < 4 4 a $.b T E { U.R.1XhXjXbXmXmXvX*X, & * $ * | tX* * * ; R ] O.!.@.iXMXmXmXjXjXmXmXbXbXMXmXMXjXjX",
"mXmXjXjXMXmXMXbXbXmXmXjXjXMXhX|.Z t 3 w p k V T E  .X.Q.-XiXkXmXbX> * * o $ }.$X% R ( T R I X.O. .+.bXjXbXmXmXjXbXmXmXMXjXMXmXmX",
"mXmXbXbXMXmXMXjXbXmXmXbXjXmXmXbXkXyX|.Z 3 5 w t b v Q E ) o.O.&XiX*X% * & % v / ) ..X.a.' R Q W ` ] =XjXbXmXmXjXjXmXmXbXjXbXmXmX",
"bXjXMXmXbXbXbXmXMXbXbXmXmXbXbXMXmXMXbXtX#Xf.5 3 2 q u v R Q E  . .^ ; - % & - [  . .] |.8Xc I ] ! Y ] cXMXbXbXmXmXbXbXMXmXMXbXbX",
"bXjXmXmXbXbXbXmXmXjXjXmXmXbXjXMXmXmXjXbXmXmXaX+Xb   < 7 6 l : K ; , $ $ % % C / (  .G gXuX^ I ] ! ^ c iXmXjXjXmXmXbXjXbXmXMXjXbX",
"MXmXMXMXbXmXMXbXMXMXMXMXMXMXMXMXbXMXmXMXbXMXMXMXMXyX.XF y + 1 O o $ o o & % U / _ ( @XcXMXjX| ^ ! V ' uXMXMXMXMXbXmXMXMXbXMXMXMX",
"mXmXjXjXMXmXMXjXbXmXmXjXjXmXmXbXjXbXmXmXjXjXmXmXjXjXMXMXtX.XJ @ X X . @ * ; I ~ _ ) +XcXmXmXkX8X$X+X8XzXbXmXmXjXjXmXmXbXjXMXmXmX",
"MXMXMXbXMXMXMXMXMXMXMXMXbXMXMXMXMXMXMXMXbXbXMXMXbXMXMXMXMXMXjXeX.X{.r 8 O : R T ( ) I.xXMXMXMXbXmXbXMXbXMXMXMXMXbXMXMXMXbXMXMXmX",
"jXjXmXmXbXjXMXmXmXjXjXmXmXbXjXmXmXMXjXbXmXmXjXbXmXmXMXjXMXmXmXjXcXMX/.3 8 : L U ~  .} 0XjXjXmXmXnXcXbXmXmXjXjXmXmXbXjXMXmXMXjXbX",
"bXbXmXmXbXbXMXmXmXbXbXmXmXbXbXMXmXMXbXbXMXmXbXbXmXmXbXbXMXmXmXbXbXmX<X3 2 l K L ~ ( ( @XcXbXMXmXMXbXbXmXMXbXbXmXmXbXbXMXmXMXbXbX",
"mXmXbXjXmXmXMXjXjXmXmXjXjXmXmXbXjXMXmXmXjXjXmXmXbXjXMXmXMXjXbXmXmXjXaXy 3 t > L U /  .P.mXmXbXjXMXmXMXjXbXmXmXjXjXmXmXbXjXMXmXmX",
"mXmXjXjXMXmXMXjXbXmXmXbXjXmXmXMXjXbXmXmXbXjXmXmXjXbXMXmXMXjXbXmXmXjXjXA 4 q l K L T X.} pXmXcXzXmXmXMXbXbXmXmXbXjXmXmXbXjXbXmXmX",
"bXbXmXmXMXjXMXmXmXjXjXmXmXbXjXMXmXMXjXbXmXmXbXjXmXmXbXbXMXmXmXjXjXmXmX X3 4 k v ~ / [ [ :XlXmXmXbXjXbXmXmXjXjXmXmXbXbXbXmXMXjXbX",
"jXjXmXmXbXbXMXmXmXjXjXmXmXbXjXMXmXmXjXbXmXmXbXjXmXmXMXjXbXmXmXjXbXmXmX<X3 0 *.G ^ ' [ ' j.rXmXmXMXjXbXmXmXjXjXmXmXbXjXMXmXMXjXbX",
"mXMXbXbXMXmXMXbXbXmXmXbXbXmXmXMXbXbXmXmXbXbXmXmXbXbXMXmXMXbXbXmXMXbXbXbXt i $.G ' I.I.j.y.qXbXbXMXmXMXbXbXmXmXbXbXMXmXMXbXMXmXmX",
"mXmXbXjXMXmXMXjXbXmXmXjXjXmXmXMXjXbXmXmXjXjXmXmXbXjXMXmXMXzXvXmXmXbXzXnXk p $.j.P.x.A.y.j.sXjXjXmXmXMXjXbXmXmXjXjXmXmXMXjXbXmXmX",
"MXbXMXMXMXbXMXMXMXbXMXMXMXbXbXMXMXMXMXbXMXMXbXMXbXMXMXMXxXpXwX4X4X3X(.d.p d g b.H.H.V.r.K.xXMXMXMXMXMXMXMXbXMXMXMXbXMXMXMXMXMXbX",
"jXjXmXmXbXjXbXmXmXjXbXmXmXjXjXMXmXMXjXbXmXmXjXjXmXmXsX4X_.G.H.`.`.`.V.h w p j m.G.G.y.8.x.vXMXmXMXjXMXmXmXbXjXmXmXbXjXMXmXMXjXbX",
"bXMXMXMXMXMXMXmXMXbXbXMXmXMXMXMXmXMXbXMXmXMXbXMXxX:XA.N.r.r.r.B.B.A.i.s j w h r.M.C.H.A.>XnXMXMXMXbXMXMXMXbXbXMXMXMXMXMXmXMXbXbX",
"mXmXbXjXMXmXMXjXbXmXmXjXjXmXmXMXjXbXmXmXjXjXmXMXx.q.c.v.9.m.1.h >.,.-.i i 2 j >.:.t.G.G.6XMXbXjXMXmXMXjXbXmXmXjXjXmXmXbXjXbXmXmX",
"mXmXbXbXMXmXMXbXbXmXmXbXjXmXmXMXjXMXmXmXjXbXmXgX<.9.e.w.r.m.>.0 q a q 3 2 7 w i p &.q.D.J.wXjXbXMXMXMXbXbXmXmXbXbXmXmXbXbXMXmXmX",
"bXjXmXmXbXjXbXmXmXjXjXmXmXbXjXMXmXmXjXbXmXmXjXyXN 2.w.9.N.e.$.7   .   X     7 < e g >.t.G.J.wXmXMXjXnXmXmXjXjXmXmXbXjXMXmXmXjXbX",
"jXjXmXmXbXbXbXmXmXjXbXmXmXbXjXMXmXMXjXbXmXmXjXrXs ;.4.9.m.2.g . X X r A h.H M @ 1 e g 1.m.G.'.3XvXjXMXmXmXjXjXmXmXbXjXMXmXMXjXbX",
"mXmXbXbXMXmXMXjXbXmXmXbXjXmXmXMXjXMXmXmXjXjXMX0Xf ;.2.q.r.:.<.#XeXtXjXmXmXbXjXH . 8 a g 7.m.A.'.[.vXMXjXbXmXmXjXbXmXmXMXbXbXmXmX",
"mXmXjXjXmXmXMXjXbXmXmXjXjXmXmXbXjXbXmXmXjXjXmX0Xf :.9.m.N.6.l.MXmXzXjXmXmXbXjXgXy 7 8 a g 1.b.F.`.].wXhXbXmXmXbXjXmXmXbXjXbXmXmX",
"bXbXmXmXbXbXbXMXmXbXbXmXmXbXbXMXmXMXbXbXmXmXbX@Xh 1.9.N.N.q.d.bXvXmXmXbXbXMXmXMX#Xr 7 8 i g 7.m.G.H.].[.sXbXbXmXmXbXbXMXmXMXjXbX",
"jXjXmXmXbXbXbXmXmXjXjXmXmXbXjXMXmXmXjXbXmXmXjX(.h 2.9.B.N.9.z.cXjXmXmXbXjXMXmXMXjX X9 7 8 e $.w.N.D.H.`.'.3XpXmXmXbXjXMXmXmXjXbX",
"MXmXbXbXMXmXMXMXMXMXMXbXbXMXMXMXbXMXMXMXbXbXMX/.#.1.e.B.m.0.(.MXmXbXMXMXmXMXMXMXMXMX@Xr 7 8 s >.w.b.C.D.H.'.J.zXbXMXMXMXbXMXMXMX",
"mXmXbXjXMXmXMXjXbXmXmXjXjXmXmXMXjXMXmXmXjXjXMXg.#.:.e.Z.c.7.XXmXmXjXjXmXmXbXjXbXmXmXjX<Xy 7 9 s 8.0.c.N.F.L.H.3XjXmXmXMXjXMXmXmX",
"mXmXbXbXMXmXMXbXbXmXmXbXbXMXmXbXbXbXmXMXcXbXjXs.$.>.r.B.c.,.>XmXmXbXbXMXmXbXbXbXmXmXbXbXeXM 8 q a $.1.e.N.H.H.J.pXMXmXMXjXMXmXmX",
"jXjXmXmXMXjXbXmXMXjXjXmXmXbXjXMXmXmXjXjXmXmXtXB -.1.n.Z.c.8.,XzXjXmXmXbXjXMXmXMXjXjXmXmXjXyXA . 2 i $.1.w.C.G.D.2XvXjXMXmXmXjXjX",
"jXjXmXmXbXbXMXmXmXbXjXmXmXbXbXMXmXMXbXbXmXmXtXN $.4.c.C.b.7.rXzXjXmXmXbXjXMXmXMXjXbXmXmXjXbXvXH 7 2 w $.3.e.Z.F.A.pXjXMXmXMXjXbX",
"mXmXbXjXMXmXMXjXbXmXmXjXbXmXmXbXjXMXmXmXjXjXtXs $.4.n.C.c.8.rXmXmXbXbXmXmXbXbXbXmXmXjXjXmXmXbXjX<Xr 4 a -.2.v.G.Z.).mXbXbXbXmXmX",
"mXmXbXjXMXmXmXjXbXmXmXjXjXmXmXMXjXMXmXmXjXjXrXi -.4.m.Z.c.,.pXmXmXjXjXmXmXbXjXbXmXMXjXbXmXmXbXbXbX X8 q s -.6.N.Z.Z.qXbXjXbXmXmX",
"bXbXMXmXbXbXbXmXMXbXbXmXmXbXbXMXmXMXjXbXmXmX<Xi >.4.n.C.w.,.aXbXbXmXmXbXbXMXmXMXbXbXmXmXbXbXbXmXbXgXM 8 w h 3.v.Z.Z.J.vXmXMXbXbX",
"jXjXmXmXbXjXMXmXmXjXjXmXmXbXjXMXmXmXjXbXmXmX@Xi ;.4.M.C.e.8.zXjXjXmXmXbXjXMXmXmXjXbXmXmXjXjXmXmXnXjX<X7 8 i -.6.M.G.C.5XmXMXjXvX",
"MXMXMXMXMXMXMXbXMXMXmXbXMXMXMXMXbXMXMXMXMXbX@Xi >.5.m.C.r.,.vXmXmXbXMXMXMXMXbXMXMXMXbXMXMXMXbXbXMXMXMXJ 8 0 s ;.e.Z.G.J.xXMXMXMX",
"mXmXbXjXMXmXMXjXbXmXmXjXjXmXmXMXjXMXmXmXjXjX Xa ;.4.M.B.e.,.jXmXmXjXjXmXmXMXjXMXmXmXjXjXmXmXbXbXMXmXMXgXy 8 w #.1.n.G.C.2XbXmXmX",
"mXMXMXbXMXMXMXbXMXMXMXMXbXMXMXMXMXMXMXMXbXMX/.p ;.4.m.C.e.u.MXMXMXMXMXMXMXMXbXMXMXMXbXMXMXbXbXbXMXMXMXMX X7 0 d -.4.B.G.A.aXMXMX",
"jXjXmXmXMXjXMXmXmXjXjXmXmXbXjXMXmXMXjXbXmXmXs.f ;.5.M.B.q.l.mXzXjXmXmXbXjXMXmXMXjXbXmXmXjXjXmXmXMXjXMXmXjXm 7 w j ;.e.Z.B.).jXbX",
"bXbXMXmXMXjXMXmXMXbXbXmXmXbXjXMXmXMXbXbXmXmXs.p ;.5.M.N.w.d.MXbXbXmXmXbXbXMXmXMXbXbXmXmXbXbXmXmXMXjXMXMXMX{.7 0 i -.2.N.F.B.gXbX",
"mXmXbXjXmXmXMXjXbXmXmXbXjXmXmXbXjXbXmXmXbXjXs.p 3.5.N.M.q.d.bXmXmXjXjXmXmXbXbXbXmXmXbXjXmXmXbXkXmXmXMXjXbXbXD < 0 j ;.5.Z.Z.).mX",
"mXmXjXbXMXmXMXjXbXmXmXbXjXMXmXMXjXbXmXmXjXjXS d 3.w.M.M.0.g.bXmXmXjXjXmXmXMXjXbXmXMXjXjXmXmXbXbXMXmXMXvXbXmX#X7 2 i %.6.N.Z.B.sX",
"bXjXmXmXMXjXMXmXmXjXjXmXmXbXbXMXmXmXjXjXmXmXM d 3.5.N.M.0.(.mXjXjXmXmXbXbXMXmXMXjXbXmXmXbXjXmXmXMXjXbXmXmXjXjXF < 0 j -.e.Z.C.).",
"jXjXmXmXbXjXbXmXmXjXjXmXmXbXjXMXmXMXjXbXmXmXM f 3.5.N.M.0.(.mXjXjXmXmXbXjXMXmXmXbXbXmXmXjXjXmXmXbXjXMXmXmXjXjX$X7 2 w #.2.M.F.F.",
"mXmXbXbXMXmXMXbXbXmXmXbXbXMXmXMXbXbXmXmXbXbXk p 3.5.M.m.q.(.MXmXmXjXbXMXmXMXbXbXmXmXbXbXmXmXbXbXMXmXMXbXbXmXmXkXf.< 2 j -.5.Z.B.",
"mXmXbXjXmXmXMXjXbXmXmXjXjXmXmXbXjXMXmXmXzXjXy f 3.5.M.m.9.(.cXmXmXjXjXmXmXbXjXbXmXmXjXjXmXmXjXjXmXmXMXjXbXmXmXjX0X< < w h 1.N.Z.",
"MXbXMXMXMXMXMXMXMXbXMXMXMXMXMXMXMXMXbXbXMXMXe f 3.w.N.M.7.oXMXMXMXMXMXMXMXMXMXMXbXbXmXMXMXbXMXMXMXbXMXMXMXMXbXMXjXF < 2 p -.5.Z.",
"jXjXmXmXbXjXMXmXmXjXjXmXmXbXjXMXmXmXjXbXmXmX0 j 3.5.M.M.7.>XmXjXjXmXmXbXjXMXmXmXjXbXmXmXjXjXmXmXMXjXMXmXmXjXjXmXmX#X  2 w h 6.N."
};
