/* XPM */
static char *result[] = {
/* columns rows colors chars-per-pixel */
"64 64 243 2 ",
"   c #060205",
".  c #0B0609",
"X  c #0D0A0C",
"o  c #090507",
"O  c #140C0B",
"+  c #180C0B",
"@  c #1C110D",
"#  c #15120F",
"$  c #120E11",
"%  c #1C1414",
"&  c #1D1915",
"*  c #191615",
"=  c #0F0D10",
"-  c #25120C",
";  c #221613",
":  c #2A1612",
">  c #231A16",
",  c #2B1A15",
"<  c #241D1A",
"1  c #2A1D1A",
"2  c #331D1A",
"3  c #371C15",
"4  c #2B120B",
"5  c #26211D",
"6  c #2B221E",
"7  c #34231D",
"8  c #3B241D",
"9  c #3A2317",
"0  c #272221",
"q  c #2A2422",
"w  c #2D2829",
"e  c #342622",
"r  c #3B2722",
"t  c #3D2A24",
"y  c #362A28",
"u  c #333233",
"i  c #471D17",
"p  c #44241B",
"a  c #49281D",
"s  c #542C1E",
"d  c #432A24",
"f  c #4C2D24",
"g  c #452D28",
"h  c #562A26",
"j  c #4B322A",
"k  c #493128",
"l  c #533225",
"z  c #53352B",
"x  c #5C352B",
"c  c #5C3B2C",
"v  c #5D3425",
"b  c #493933",
"n  c #5C3C33",
"m  c #553935",
"M  c #633C2D",
"N  c #67372A",
"B  c #623D34",
"V  c #6C3C33",
"C  c #653533",
"Z  c #733B32",
"A  c #4D1F22",
"S  c #5A4338",
"D  c #46423C",
"F  c #644034",
"G  c #6B4333",
"H  c #654339",
"J  c #6A4339",
"K  c #6D493B",
"L  c #744433",
"P  c #73463A",
"I  c #734A3C",
"U  c #7A4738",
"Y  c #6E4936",
"T  c #4A4242",
"R  c #534947",
"E  c #5A5452",
"W  c #694A44",
"Q  c #734C43",
"!  c #7B4B42",
"~  c #7D554A",
"^  c #7D5446",
"/  c #6C5B56",
"(  c #72625B",
")  c #766B67",
"_  c #7A7676",
"`  c #736D69",
"'  c #844B35",
"]  c #834C3B",
"[  c #874739",
"{  c #914A3B",
"}  c #8C533C",
"|  c #85513B",
" . c #92553D",
".. c #96593E",
"X. c #864A46",
"o. c #835445",
"O. c #8D5442",
"+. c #8B5C4C",
"@. c #885849",
"#. c #935A43",
"$. c #9B5C43",
"%. c #9B5B4C",
"&. c #975546",
"*. c #885C54",
"=. c #935C53",
"-. c #985755",
";. c #944D4F",
":. c #A35C46",
">. c #A35D4A",
",. c #AC5A47",
"<. c #A45C58",
"1. c #93624D",
"2. c #9A634D",
"3. c #9D654B",
"4. c #8C6156",
"5. c #956354",
"6. c #956A5C",
"7. c #9C6B5C",
"8. c #9B6755",
"9. c #A26247",
"0. c #A4644C",
"q. c #A9654D",
"w. c #A96A4F",
"e. c #A46C52",
"r. c #AB6B53",
"t. c #A76957",
"y. c #AC735B",
"u. c #A8735A",
"i. c #B47257",
"p. c #B4745A",
"a. c #B27A5D",
"s. c #BB7A5D",
"d. c #BA725F",
"f. c #B16A58",
"g. c #9C6E63",
"h. c #877876",
"j. c #987B72",
"k. c #907067",
"l. c #AA6A67",
"z. c #AA7667",
"x. c #B37563",
"c. c #B37C63",
"v. c #BD7C63",
"b. c #B7796A",
"n. c #BB7A77",
"m. c #B46A65",
"M. c #C5765F",
"N. c #C57B69",
"B. c #C77F7F",
"V. c #BC846A",
"C. c #B98468",
"Z. c #B58373",
"A. c #BA8273",
"S. c #BC8877",
"D. c #AB867A",
"F. c #C38264",
"G. c #C4856C",
"H. c #C28A6D",
"J. c #CB8A6C",
"K. c #CB836D",
"L. c #C48C72",
"P. c #CB8C73",
"I. c #C38D7A",
"U. c #CB8C7C",
"Y. c #C48473",
"T. c #D38B7C",
"R. c #D58B73",
"E. c #CC9275",
"W. c #CD937C",
"Q. c #C5917E",
"!. c #D39475",
"~. c #D4947C",
"^. c #DA957C",
"/. c #D49A7E",
"(. c #DB9B7D",
"). c #D99576",
"_. c #D1876F",
"`. c #E19A7F",
"'. c #817F81",
"]. c #938C8B",
"[. c #9D9797",
"{. c #918B88",
"}. c #A39C99",
"|. c #AD8E89",
" X c #B8A29A",
".X c #ABA7A7",
"XX c #B3AAA9",
"oX c #BAB6B5",
"OX c #B7B0AE",
"+X c #C98A85",
"@X c #D28E84",
"#X c #CB9382",
"$X c #C89585",
"%X c #D49483",
"&X c #DC9B83",
"*X c #DB9C89",
"=X c #D69986",
"-X c #D79992",
";X c #E39D84",
":X c #E69B89",
">X c #EA9F91",
",X c #DEA184",
"<X c #DDA28C",
"1X c #DCA392",
"2X c #DBA899",
"3X c #E3A185",
"4X c #E3A48B",
"5X c #E9A58D",
"6X c #E7A88E",
"7X c #E3A592",
"8X c #EBA492",
"9X c #E5AA96",
"0X c #EBAB94",
"qX c #E5AB9A",
"wX c #EDAD9C",
"eX c #F2AD9C",
"rX c #F4AA96",
"tX c #EDB09C",
"yX c #F2B29D",
"uX c #F1B096",
"iX c #CFB5B0",
"pX c #EDADA1",
"aX c #EDB3A2",
"sX c #F3B4A3",
"dX c #F5B8A5",
"fX c #F5BAAB",
"gX c #FABCAA",
"hX c #F9B6A6",
"jX c #F8BEB5",
"kX c #F6AEA1",
"lX c #FCC1AD",
"zX c #FCC4B8",
"xX c #C9C7C8",
"cX c #D4CCCA",
"vX c #D9D5D4",
"bX c #E5DDDA",
"nX c #E2CAC7",
"mX c #E2E0DE",
"MX c #EDECEB",
"NX c #E5E3E3",
"BX c #F1EEED",
"VX c #F6F6F6",
"CX c #F4F0EF",
/* pixels */
"VXVXVXVXVXVXVXVXVXVXVXVXVXVXVXVXVXVXVXVXVXvXD 5 & & & 5 5 5 < < 5 5 5 5 w w 5 q w 5 q R OXVXVXVXVXVXVXVXVXVXVXVXVXVXVXVXVXVXVXVX",
"VXVXVXVXVXVXVXVXVXVXVXVXVXVXVXVXVXVXVXMXD.q 5 5 5 & 5 & & 5 5 5 < < 5 5 5 q w q q q q q q ( MXVXVXVXVXVXVXVXVXVXVXVXVXVXVXVXVXVX",
"VXVXVXVXVXVXVXVXVXVXVXVXVXVXVXVXVXVXMX` & * * & & & 5 & 5 < 5 & & & 5 5 5 5 5 5 0 q q q q q E vXVXVXVXVXVXVXVXVXVXVXVXVXVXVXVXVX",
"VXVXVXVXVXVXVXVXVXVXVXVXVXVXVXVXVXvXE 5 & 5 & & & & 5 5 < > 5 5 5 & 5 5 5 5 5 w 5 q 6 0 q q e R OXVXVXVXVXVXVXVXVXVXVXVXVXVXVXVX",
"VXVXVXVXVXVXVXVXVXVXVXVXVXVXVXVXCXE > > & 5 & > & 5 5 > & > > 5 < > 5 5 5 5 5 q q 0 0 0 q 5 0 0 y ].VXVXVXVXVXVXVXVXVXVXVXVXVXVX",
"VXVXVXVXVXVXVXVXVXVXVXVXVXVXVXVX( 5 & > & % & & 5 & > > & > < & > ; > > 5 5 5 6 e q 0 0 5 0 0 0 0 y h.VXVXVXVXVXVXVXVXVXVXVXVXVX",
"VXVXVXVXVXVXVXVXVXVXVXVXVXVXVX].> ; & & % & > > & & 5 5 , , , t r e 7 e t t k k g t q q 5 q 5 0 0 0 e '.VXVXVXVXVXVXVXVXVXVXVXVX",
"VXVXVXVXVXVXVXVXVXVXVXVXVXVXOX6 @ & * * # O > 5 < < , , 6 t t t j z F B F F Y H J m t q q 5 5 5 0 0 w w xXVXVXVXVXVXVXVXVXVXVXVX",
"VXVXVXVXVXVXVXVXVXVXVXVXVXMXt @ @ @ O O @ : 8 9 a l c c M I L o.=.l.c.s.F.v.x.y.t.Q d e 6 5 5 5 0 5 0 q E VXVXVXVXVXVXVXVXVXVXVX",
"VXVXVXVXVXVXVXVXVXVXVXVXVX}.@ @ + % : p v Y o.@.#.e.i.v.V.G.G.P.%X&X(.(.).^.!.P.b.5.m 7 5 5 q 5 q 5 5 0 w XXVXVXVXVXVXVXVXVXVXVX",
"VXVXVXVXVXVXVXVXVXVXVXVXNXD O - 2 n o.2.3.e.p.s.F.J.).^.^.`.3X5X5X5X4X3X3X3X(.).W.b.X.m y 5 < 6 5 < 0 0 0 T MXVXVXVXVXVXVXVXVXVX",
"VXVXVXVXVXVXVXVXVXVXVXVXoX> : H +.t.y.i.p.s.s.F.!.(.3X3X3X5XrXuXuXuX0X0X6X3X3X(.~.n.=.m t 7 > > 5 q 0 5 0 0 }.VXVXVXVXVXVXVXVXVX",
"VXVXVXVXVXVXVXVXVXVXVXVXD.@ j +.t.a.p.p.s.F.N.J.!.`.6X6X0XwXyXyXhXyXsXyX0X6X3X`.=XI.5.J j t 6 < < 5 6 5 < q T MXVXVXVXVXVXVXVXVX",
"VXVXVXVXVXVXVXVXVXVXVXVXT # I 8.u.a.y.s.F.F.F.R.(.5XrXuXwXsXdXgXlXlXdXsXyX0X0X3X&XW.7.o.S t e < < & 5 5 0 0 w xXVXVXVXVXVXVXVXVX",
"VXVXVXVXVXVXVXVXVXVXVXmX6 2 | 8.e.r.i.s.F.F.P.~.3X4X6XyXsXsXdXgXgXhXdXdXyXuX5X4X&XW.z.*.Q j t e 6 q q 6 w < 1 .XVXVXVXVXVXVXVXVX",
"VXVXVXVXVXVXVXVXVXVXVXcX; d | $.9.w.a.s.F.J.!.(.&X4X6XwXeXdXdXdXdXdXsXsXyXyXwX5X3X*XA.*.J m d 2 6 6 6 5 q < 1 h.VXVXVXVXVXVXVXVX",
"VXVXVXVXVXVXVXVXVXVXVX.X# c O.%.$.q.p.s.F.P.^./.&X4X0XtXyXyXdXyXeXdXsXpXtXeXwX0X<X4XS.7.Q n m g e 6 5 6 0 < < E MXVXVXVXVXVXVXVX",
"VXVXVXVXVXVXVXVXVXVXVX{.; F } #.$.w.i.s.F.!.&X~.<X4X6XtXsXyXsXsXsXsXsXsXwXwXtXwX4X4X!.Z.*.H b k t 6 5 5 0 0 1 y xXVXVXVXVXVXVXVX",
"VXVXVXVXVXVXVXVXVXVXMXD.; P #. .&.q.i.F.N.G.=X(.6X9X0XyXdXdXdXdXdXsXsXwXwXeXwXwX0X4X&X<XQ.7.H k 9 6 6 5 1 < 1 6 ].VXVXVXVXVXVXVX",
"VXVXVXVXVXVXVXVXVXVXVX` , I #.} ..q.s.F.F.F.&X4X7X0XwXyXyXyXgXgXdXsXsXsXaXwXwXqX0X4X3X&X(.H.u.G 9 6 ; > < 1 < < _ VXVXVXVXVXVXVX",
"VXVXVXVXVXVXVXVXVXVXVX` 6 I ......9.s.J.J.F.(.4X&X4XtXsXtXdXlXdXsXaXaXaX9X9X9X9X0X6X3X3X(.).L.+.j 6 > 1 < < q < E VXVXVXVXVXVXVX",
"VXVXVXVXVXVXVXVXVXVXVX` , I } ....$.i.P.J.J.&X4X*X:XdXtXtXlXlXlXaXqX1XI.Z.Z.I.#X1X7X3X&X(.(.!.u.v 6 1 < < < % ; b VXVXVXVXVXVXVX",
"VXVXVXVXVXVXVXVXVXVXVXh., L } ..$...9.J.G.&X&X&X~.;XyXqXtXlXdXtXqXW.z.6.6.z.Z.z.A.#X&X(.(.(./.H.I 7 1 ; ; % ; ; w vXVXVXVXVXVXVX",
"VXVXVXVXVXVXVXVXVXVXVXOX2 Y | ..0.:.9.p.G.~.=X~.v.^.9X<X9XtXtX1XZ.*.5.Z.$X2X2XQ.A.b.E.(.(.(.).E.+.d 6 1 ; ; @ % 5 oXVXVXVXVXVXVX",
"VXVXVXVXVXVXVXVXVXVXVXmXt F G G o.8.e.w.i.H.J.J.v.P.4X=X=X-X$X6.o.^ c.#X1XqXtX9X=XP.J.!.(.(.(./.z.z 7 2 1 3 h i 1 ].VXVXVXVXVXVX",
"VXVXVXVXVXVXVXVXVXVXVXVXD a a d z I 1.3.3.w.V.r.G.I.W.P.c.e.o.L G o.5.t.z.Z.S.#X*X!.J.E.(.(.(.(.I.W 7 2 p =.m.;.e _ VXVXVXVXVXVX",
"VXVXVXVXVXVXVXVXVXVXVXVX( p G Y l a l F N L O.9.v.r.#.$.} N N N N s p 3 m b n ! } s.J./.6X6X(.(.W.*.2 z t.@X{ &.m / VXVXVXVXVXVX",
"VXVXVXVXVXVXVXVXVXVXVXVXXXz  .#.} c 9 3 9 p N ' 0.G.P.A.t.x.} L v M 6.8 e W |.V } r.J.&XuX6X,X(.W.z.f *.1XR.M.,.=./ VXVXVXVXVXVX",
"VXVXVXVXVXVXVXVXVXVXVXVXcXH U V a 9 j j z M v N  .i.;XeXeX*XN.] L ;.z.^ P z.|.#X&X&X<XtXaXtX<X!.E.S.B Z.5X^.`.M.b.) VXVXVXVXVXVX",
"VXVXVXVXVXVXVXVXVXVXVXVXMX/ a 3 8 5 b k.*.V L [ i._.8XhXeX:XT.v.t.-.0.l.b.Y.#X=X9XyXyXdXaXaX<X=X!.Q.Q b.%Xf.N.^.N.h.VXVXVXVXVXVX",
"VXVXVXVXVXVXVXVXVXVXVXVXCX~ p 9 4.j l 6.=.=.'  .M._.:XeXyX5X5X;X_.i.x.G.U.%X7XkXlXyXyXtXaXtX<X/.E.W.k.7.T.{ :.:X@X|.VXVXVXVXVXVX",
"VXVXVXVXVXVXVXVXVXVXVXVXVXj.N v L ] O.%.%.f.{ $.v.K.;XrXrXrX5X5X4X^.!.~./.:XqXsXdXyXyXyXtXtX6X=X~.#Xb.U @XN.,.T.:XiXVXVXVXVXVXVX",
"VXVXVXVXVXVXVXVXVXVXVXVXVXD.' L '  .>.:.,.&.&.y.N.N.>XeXkXkXpXrXrX0XwX8X8X8XwXwXlXlXlXaXqX9X2X/.E.Q.L.~ A.@Xd.N.:XnXVXVXVXVXVXVX",
"VXVXVXVXVXVXVXVXVXVXVXVXVX|.} ' { :.q.q.>.&...r.N.R.rXhXhXpX>XT.%XeXkXkXpXhXgXjXzXzXlXaXtX,X6X/.E.E.S.( g.f.K.^.T.NXVXVXVXVXVXVX",
"VXVXVXVXVXVXVXVXVXVXVXVXVX X......:.:.:.q.$.} q.N.:XeXkX8X@X@XN.,.T.kXhXhXhXjXnXzXlX2XaX6X6X,X/.E.H.S.6.o.%.>X&X@XCXVXVXVXVXVXVX",
"VXVXVXVXVXVXVXVXVXVXVXVXCXiX..e.r.w.q.r.i.$.{ 0.M.>XrXrX>X%X>X>XN.&.T.kXjXjXjXjXlXaXaX6X,X,X/./.E.C.C.C.K V.:X*XiXVXVXVXVXVXVXVX",
"VXVXVXVXVXVXVXVXVXVXVXVXVXiX..u.i.p.p.s.i.r.>.f.R.rXhXhXkX@Xz.@X@X&.,.U.pXjXjXjXlXqX2X6X(.6X(.!.C.C.L.D.c C.W.*XnXVXVXVXVXVXVXVX",
"VXVXVXVXVXVXVXVXVXVXVXVXVXcX| ..w.p.i.i.q.>.&.$.M.N.%X@X5.i h [ M.f.>.f.@X8XfXfXdX9X,X,X6X(.(.E.H.C.L.C.c C.W.,XbXVXVXVXVXVXVXVX",
"VXVXVXVXVXVXVXVXVXVXVXVXVXnXU ..9.r.r.w.0.[ i i Z O.>.%.m.n.m.<.N.+Xb.>.N.-XpXpXaX2X/././././.H.C.C.H.C.Y 6.C.$XCXCXVXVXVXVXVXVX",
"VXVXVXVXVXVXVXVXVXVXVXVXVXNXY | $.$.0.q.>.{ <.X.Z N P t.l.+X@X%X-X>X*Xf.t.I.1XpXaX9X/./././.E.H.H.H.H.C.Y +.iXMXVXVXVXVXVXVXVXVX",
"VXVXVXVXVXVXVXVXVXVXVXVXVXVXI ' } ..9.9.w.$.' [ o.J ^ H B *.6.|.@X7XqX@Xe.x.#X7X1X=XQ.E./.E.E.H.V.H.H.C.*.~ VXVXVXVXVXVXVXVXVXVX",
"VXVXVXVXVXVXVXVXVXVXVXVXVXVXD.L ' ..$.w.w.q.%.U j 7 k m 6 r 8 H o.g.$X2XA.y.P.=X<X=XW././.E.H.H.H.F.V.C.*.k.VXVXVXVXVXVXVXVXVXVX",
"VXVXVXVXVXVXVXVXVXVXVXVXVXVX XL '  .$.w.q.0.%.l 1 e g f a Q Q n C c ~ j.$Xz.S.~.,X<XW./.E.S.V.C.H.V.C.a.K }.VXVXVXVXVXVXVXVXVXVX",
"VXVXVXVXVXVXVXVXVXVXVXVXVXVXvXG L } ..9.3.2.v - 3 P ;.-.n.A.n.+X+X8.z J j.Z.A.$X$X#XW.E.E.L.L.C.V.C.a.z.c OXVXVXVXVXVXVXVXVXVXVX",
"VXVXVXVXVXVXVXVXVXVXVXVXVXVXBXY L | ..#.#.M 4 p [ X.;.l.n.m.m.'.z.+Xz.z S ^ S.$XS.$XE.E.S.V.C.C.C.C.i.e.z vXVXVXVXVXVXVXVXVXVXVX",
"VXVXVXVXVXVXVXVXVXVXVXVXVXVXVXk.L '  .} B 9 a U [ X.X.;.;.X.C C X.=.n.g.c c g.+X$XQ.L.V.V.V.C.u.C.u.u.~ z CXVXVXVXVXVXVXVXVXVXVX",
"VXVXVXVXVXVXVXVXVXVXVXVXVXVXVXXXG ' } I a 2 V P C C C C C C A A h V X.-.I l o.#X=XL.S.C.V.C.C.C.u.u.8.H / CXVXVXVXVXVXVXVXVXVXVX",
"VXVXVXVXVXVXVXVXVXVXVXVXVXVXVXbXG U ] B : z V C A 3 A A C X.;.l.*.V C P ^ K H S.S.S.C.C.C.C.C.3.e.e.+.k XXVXVXVXVXVXVXVXVXVXVXVX",
"VXVXVXVXVXVXVXVXVXVXVXVXVXVXVXVX~ Y U c : k h h i x P ;.;.<.l.B.B.l.l.A.7.Q H g.D.C.u.C.u.C.u.3.e.+.S b MXVXVXVXVXVXVXVXVXVXVXVX",
"VXVXVXVXVXVXVXVXVXVXVXVXVXVXVXVXXXM Y v , f h M X.;.-.<.M.B.B.-X+X+X=X+Xz.n n o.u.C.u.u.e.e.3.1.+.Y t [.VXVXVXVXVXVXVXVXVXVXVXVX",
"VXVXVXVXVXVXVXVXVXVXVXVXVXVXVXVXBXF F z 2 l V U ;.<.l.m.n.'.B.+XB.b.v.b.=.x d n 4.u.e.8.1.3.1.+.Y k D BXVXVXVXVXVXVXVXVXVXVXVXVX",
"VXVXVXVXVXVXVXVXVXVXVXVXVXVXVXVXVX{.c l , a N U X.-.<.-.;.;.X.X.O.0.r.z.5.z k g ~ 6.1.+.1.1.+.I l t xXVXVXVXVXVXVXVXVXVXVXVXVXVX",
"VXVXVXVXVXVXVXVXVXVXVXVXVXVXVXVXVXMXS f @ a v N h i 3 4 4 - : a Z O.%.5.J k k y S @.@.@.@.o.U c 7 .XVXVXVXVXVXVXVXVXVXVXVXVXVXVX",
"VXVXVXVXVXVXVXVXVXVXVXVXVXVXVXVXVXVX}.g ; p s h h p 4 - : , W g.z.z.5.@.c 7 < 1 S ~ I ^ o.^ K 8 [.VXVXVXVXVXVXVXVXVXVXVXVXVXVXVX",
"VXVXVXVXVXVXVXVXVXVXVXVXVXVXVXVXVXVXVX` 7 : 9 f v Z M v d z g.b.S.c.4.F 8 1 5 5 y I I ^ I S 8 [.VXVXVXVXVXVXVXVXVXVXVXVXVXVXVXVX",
"VXVXVXVXVXVXVXVXVXVXVXVXVXVXVXVXVXVXVXNX( @ % 2 l M N K h m *.4.j.*.Q k > > > 5 6 Y Y Y z e {.VXVXVXVXVXVXVXVXVXVXVXVXVXVXVXVXVX",
"VXVXVXVXVXVXVXVXVXVXVXVXVXVXVXVXVXVXVXVXMXR . % 2 g j h j j n V Q x g r ; < & < 6 m S d 6 {.VXVXVXVXVXVXVXVXVXVXVXVXVXVXVXVXVXVX",
"VXVXVXVXVXVXVXVXVXVXVXVXVXVXVXVXVXVXVXVXVXmXu . % 2 e g d r g g g t 1 ; 1 % * * 5 b 7 , {.VXVXVXVXVXVXVXVXVXVXVXVXVXVXVXVXVXVXVX",
"VXVXVXVXVXVXVXVXVXVXVXVXVXVXVXVXVXVXVXVXVXVXoX= . % : 1 : 1 < < ; < < % * $ $ * 0 & y OXCXVXVXVXVXVXVXVXVXVXVXVXVXVXVXVXVXVXVXVX",
"VXVXVXVXVXVXVXVXVXVXVXVXVXVXVXVXVXVXVXVXVXVXVX'.. O % % + $ = * $ # % $ = = X * & E vXVXVXVXVXVXVXVXVXVXVXVXVXVXVXVXVXVXVXVXVXVX",
"VXVXVXVXVXVXVXVXVXVXVXVXVXVXVXVXVXVXVXVXVXVXVXMXw . . $ X . . . . = X . = = $ E cXVXVXVXVXVXVXVXVXVXVXVXVXVXVXVXVXVXVXVXVXVXVXVX",
"VXVXVXVXVXVXVXVXVXVXVXVXVXVXVXVXVXVXVXVXVXVXVXVX]..   .         . . . = = u oXVXVXVXVXVXVXVXVXVXVXVXVXVXVXVXVXVXVXVXVXVXVXVXVXVX",
"VXVXVXVXVXVXVXVXVXVXVXVXVXVXVXVXVXVXVXVXVXVXVXVXVX[.*         o = = = u oXVXVXVXVXVXVXVXVXVXVXVXVXVXVXVXVXVXVXVXVXVXVXVXVXVXVXVX",
"VXVXVXVXVXVXVXVXVXVXVXVXVXVXVXVXVXVXVXVXVXVXVXVXVXVXNX.X'._ _ _ _ .XxXMXVXVXVXVXVXVXVXVXVXVXVXVXVXVXVXVXVXVXVXVXVXVXVXVXVXVXVXVX"
};
