/* XPM */
static char *result[] = {
/* columns rows colors chars-per-pixel */
"64 64 230 2 ",
"   c #1F1D25",
".  c #201E26",
"X  c #1F2025",
"o  c #26242B",
"O  c #2B252B",
"+  c #2D292D",
"@  c #2A2226",
"#  c #342A2C",
"$  c #3B2D2D",
"%  c #362629",
"&  c #2E2B32",
"*  c #342E32",
"=  c #392E32",
"-  c #353136",
";  c #3C3233",
":  c #353339",
">  c #3C3539",
",  c #3E383C",
"<  c #3D302F",
"1  c #482E2C",
"2  c #49312E",
"3  c #54342E",
"4  c #5B352E",
"5  c #5C392F",
"6  c #432F30",
"7  c #443333",
"8  c #4B3633",
"9  c #4D3935",
"0  c #423639",
"q  c #453A3B",
"w  c #4C3C3A",
"e  c #463836",
"r  c #523531",
"t  c #5B3631",
"y  c #543A34",
"u  c #5C3C34",
"i  c #533E3A",
"p  c #5B3E39",
"a  c #522D26",
"s  c #63382E",
"d  c #633D34",
"f  c #6B3F34",
"g  c #613E38",
"h  c #773F30",
"j  c #4D413C",
"k  c #5E4136",
"l  c #55423B",
"z  c #5C433C",
"x  c #5E493F",
"c  c #654136",
"v  c #6C4336",
"b  c #63433B",
"n  c #6B453A",
"m  c #64483E",
"M  c #6C4A3D",
"N  c #734536",
"B  c #7C4A36",
"V  c #724639",
"C  c #744A3B",
"Z  c #7C4C3A",
"A  c #784737",
"S  c #7C513E",
"D  c #3E3A41",
"F  c #483E40",
"G  c #4B4241",
"H  c #49464B",
"J  c #544442",
"K  c #5B4641",
"L  c #5D4944",
"P  c #574B48",
"I  c #524D52",
"U  c #555357",
"Y  c #624642",
"T  c #644A42",
"R  c #6C4C43",
"E  c #644E49",
"W  c #6D4E49",
"Q  c #6B4545",
"!  c #734D41",
"~  c #7B4E42",
"^  c #744E4B",
"/  c #6D5144",
"(  c #6C534B",
")  c #64524C",
"_  c #745244",
"`  c #7B5343",
"'  c #7D5846",
"]  c #73544A",
"[  c #7A554C",
"{  c #7C5A4B",
"}  c #76594B",
"|  c #695C59",
" . c #7C5C52",
".. c #775A55",
"X. c #7A645A",
"o. c #7F604E",
"O. c #635F63",
"+. c #6B6768",
"@. c #786B67",
"#. c #787273",
"$. c #824C36",
"%. c #834D3A",
"&. c #884F3B",
"*. c #824533",
"=. c #84513C",
"-. c #8B523B",
";. c #885338",
":. c #93563C",
">. c #95593E",
",. c #9A5A3E",
"<. c #9A5436",
"1. c #A35D3D",
"2. c #AF5C3A",
"3. c #9E623E",
"4. c #A8603B",
"5. c #B3673E",
"6. c #845543",
"7. c #8C5542",
"8. c #855A46",
"9. c #8C5B45",
"0. c #825B4B",
"q. c #8B5D4A",
"w. c #935742",
"e. c #945B44",
"r. c #9C5D43",
"t. c #935D49",
"y. c #9A5E49",
"u. c #835D55",
"i. c #89564B",
"p. c #A25D42",
"a. c #A55F45",
"s. c #8C614C",
"d. c #89614A",
"f. c #9D6144",
"g. c #93624B",
"h. c #9B634B",
"j. c #98694C",
"k. c #8B6354",
"l. c #866355",
"z. c #936452",
"x. c #9D6451",
"c. c #9C6A53",
"v. c #92645A",
"b. c #956A59",
"n. c #97735E",
"m. c #A46345",
"M. c #AA6645",
"N. c #AC6944",
"B. c #A4644B",
"V. c #A36B4E",
"C. c #AC6A4B",
"Z. c #A86948",
"A. c #BC6D44",
"S. c #B26D4C",
"D. c #B56B45",
"F. c #AD714B",
"G. c #B4724C",
"H. c #BB744C",
"J. c #BD794C",
"K. c #B97245",
"L. c #A46D53",
"P. c #AC6C53",
"I. c #A46751",
"U. c #B16F54",
"Y. c #AC7154",
"T. c #A67559",
"R. c #B47355",
"E. c #BE7651",
"W. c #B2745A",
"Q. c #BC7A5C",
"!. c #B7795D",
"~. c #886861",
"^. c #996961",
"/. c #867876",
"(. c #967D74",
"). c #957968",
"_. c #A37D66",
"`. c #B07662",
"'. c #C37449",
"]. c #C47A4D",
"[. c #CB7B4E",
"{. c #C97449",
"}. c #C57B53",
"|. c #C67A57",
" X c #C07A60",
".X c #9D806C",
"XX c #96847B",
"oX c #AD8C7A",
"OX c #C68354",
"+X c #D28354",
"@X c #D68B58",
"#X c #C99879",
"$X c #CE8A65",
"%X c #E4A778",
"&X c #979292",
"*X c #8D8A8B",
"=X c #A99587",
"-X c #B69C8B",
";X c #A99D9B",
":X c #B7A59B",
">X c #A8A6A7",
",X c #B9B7B8",
"<X c #B6AAA6",
"1X c #C59986",
"2X c #C6AC97",
"3X c #C1ADA5",
"4X c #C7B5AC",
"5X c #C5BBB7",
"6X c #D4BDAE",
"7X c #D6C5B7",
"8X c #D4C3AF",
"9X c #E2CFBA",
"0X c #C0BFC1",
"qX c #C3C1C2",
"wX c #CCC8C6",
"eX c #D2CECC",
"rX c #D9CAC4",
"tX c #DBD2CB",
"yX c #DAD8D8",
"uX c #E2DEDC",
"iX c #E4DBD5",
"pX c #DFDFE0",
"aX c #E5E3E3",
"sX c #EAE6E5",
"dX c #EEEBEB",
"fX c #E7E7E8",
"gX c #F5F4F4",
"hX c #FFFFFF",
"jX c #F8F6F5",
"kX c #F0EBE7",
/* pixels */
"hXhXhXhXhXhXhXhXhXhXhXhXhXhXhXhXhX,X#.I L L ) T L ( ( E ( M M M S M / / S _ _ / ( } X.;XkXhXhXhXhXhXhXhXhXhXhXhXhXhXhXhXhXhXhXhX",
"hXhXhXhXhXhXhXhXhXhXhXhXhXhXhXyX/.P P L E ) L T T T m R M S _ ' =.} ' / _ _ _ _ M ( ) ) #.fXhXhXhXhXhXhXhXhXhXhXhXhXhXhXhXhXhXhX",
"hXhXhXhXhXhXhXhXhXhXhXhXhXgX*XL ) L T L L K m m m m m M x M M S o.' 3.o.' ' ' _ M / _ E T X.eXhXhXhXhXhXhXhXhXhXhXhXhXhXhXhXhXhX",
"hXhXhXhXhXhXhXhXhXhXhXhX5X+.P L L K K z m z p b z n v m M m S ' d.' j.d.j.' S ' S _ _ / x x ) <XhXhXhXhXhXhXhXhXhXhXhXhXhXhXhXhX",
"hXhXhXhXhXhXhXhXhXhXhX>XP E L K x z L L b z k b n C v C =.S S =.o.3.3.o.3.} o.o.' ' _ m z Y K E wXhXhXhXhXhXhXhXhXhXhXhXhXhXhXhX",
"hXhXhXhXhXhXhXhXhXhXqXP L K l i l l z b b v A Z Z =.;.:.f.4.3.4.F.5..X;.3.3.3.;.;.` S T T m K z E qXhXhXhXhXhXhXhXhXhXhXhXhXhXhX",
"hXhXhXhXhXhXhXhXhXaX| J K K l l l l z z M Z B =.-.-.:.,.f.F.K.K.J.OXOXOXOXF.3.3.3.=.6.S C M b Y m @.dXhXhXhXhXhXhXhXhXhXhXhXhXhX",
"hXhXhXhXhXhXhXhXjX*XP K z l z l k l k c Z Z =.=.=.;.:.:.3.4.5.F.K.J.OXF.OX5.OXF.m.f.>.,.>.9.6.~ 0.o.7XhXhXhXhXhXhXhXhXhXhXhXhXhX",
"hXhXhXhXhXhXhXhX0XP l l l l l l k k k N S B %.&.&.&.:.>.,.m.N.K.J.J.J.OXE.H.D.M.M.p.r.r.p.w.w.7.s.b.:XhXhXhXhXhXhXhXhXhXhXhXhXhX",
"hXhXhXhXhXhXhXhX#.j j j l l l l x k m M S B ;.=.$.$.;.>.,.r.m.N.F.J.K.OXH.H.S.M.M.p.,.,.r.w.7.6.8.s..XjXhXhXhXhXhXhXhXhXhXhXhXhX",
"hXhXhXhXhXhXhXyXG G j j i i k l k x c M S B ;.;.&.B ;.&.>.,.r.f.Z.F.5.OXS.S.D.C.M.p.p.,.w.:.7.=.=.q.k.7XhXhXhXhXhXhXhXhXhXhXhXhX",
"hXhXhXhXhXhXhX>XG j q j 9 l i k k m c N S ;.;.=.&.%.*.&.:.>.r.f.f.Z.F.V.S.D.C.C.m.m.r.r.r.:.-.7.6.8.d.oXjXhXhXhXhXhXhXhXhXhXhXhX",
"hXhXhXhXhXhXjX+.j j j e 9 j l y k z k n B =.%.%.%.=.$.;.:.w.:.r.Z.Z.C.G.S.S.M.M.B.m.r.t.e.w.-.9.6.6.0.b.sXhXhXhXhXhXhXhXhXhXhXhX",
"hXhXhXhXhXhXdXU , q q e q 9 i y y u y c C Z Z %.Z *.%.$.&.>.r.r.N.Z.C.G.S.S.C.C.B.y.y.y.r.w.7.=.=.` ' d.4XhXhXhXhXhXhXhXhXhXhXhX",
"hXhXhXhXhXhXpXH , , e j e 9 i 9 y l k k N C A $.Z B B %.&.w.r.r.m.C.C.C.S.S.S.C.B.r.r.y.r.e.w.7.6.6.` 0.=XhXhXhXhXhXhXhXhXhXhXhX",
"hXhXhXhXhXhXeXD , , , 9 e 7 9 9 9 k y k c n V B Z %.Z *.&.:.e.r.f.C.Y.G.S.S.M.C.B.f.r.y.y.r.w.9.6.6.6.q.).dXhXhXhXhXhXhXhXhXhXhX",
"hXhXhXhXhXhXqX, , > 0 0 e e 9 9 y p u u c v v A A Z B $.&.-.>.f.f.C.C.G.R.S.S.m.m.p.r.y.y.y.e.w.7.7.6.0.k.7XhXhXhXhXhXhXhXhXhXhX",
"hXhXhXhXhXhX0XD , , q 7 e 7 8 9 8 y u d n v v v N A B %.;.-.>.,.f.m.C.C.S.S.C.C.B.h.a.y.a.a.y.y.r.7.7.q.z.<XhXhXhXhXhXhXhXhXhXhX",
"hXhXhXhXhXhX,X: , q 0 ; ; 7 9 9 y y u u v M Z N N A B ;.-.:.p.m.m.m.Z.C.S.S.C.C.B.m.p.r.a.B.a.a.y.9.6.9.s.oXhXhXhXhXhXhXhXhXhXhX",
"hXhXhXhXhXhX,X: : 0 ; - < 7 8 9 9 y u c N Z N N V N B ;.:.m.m.C.C.m.f.V.P.Y.U.R.U.C.B.a.a.I.I.a.y.e.9.9.d..XhXhXhXhXhXhXhXhXhXhX",
"hXhXhXhXhXhX,X& - > ; ; < 6 7 e 9 y b C Z Z N v v M B ;.>.>.q.9.j.c.0.[ q.b.L.Y.R.R.C.B.C.I.I.B.a.t.9.9.s.n.gXhXhXhXhXhXhXhXhXhX",
"hXhXhXhXhXhX>X: - > = < < 7 7 2 7 y M C C N Z V N N Z S M i 0 q w G q w w l [ c.W.W.P.C.I.P.I.B.y.i.6.0.' l.uXhXhXhXhXhXhXhXhXhX",
"hXhXhXhXhXhX>X& : - ; ; < ; 7 7 7 z M C Z N N n v n N y ; ; ; ; > $ # ; $ 7 l _ z.!.P.U.P.P.V.e.[ m j l l J =XhXhXhXhXhXhXhXhXhX",
"hXhXhXhXhXhX>X& : - = $ < < e 7 8 b n V N B v c c c 2 # 7 9 p p k u 8 6 6 6 y u 6.L.V.B.m.m.9.M 9 ; ; = * ; F eXhXhXhXhXhXhXhXhX",
"hXhXhXhXhXhX>X& , - - $ $ < 7 2 z M C C N N v v c 3 2 8 u c v ~ 6.q.7.! d y t g Z >.h.e.w.-.Z c 2 $ = ; # = - &XhXhXhXhXhXhXhXhX",
"hXhXhXhXhXhX>X& : - - = < < 7 9 m R ! C Z N v v c 5 u c g n M ! _ ! ] ! ~ C d u v B 7.w.S N c u y u c b z i > >XhXhXhXhXhXhXhXhX",
"hXhXhXhXhXhX,X* & * # # < 6 7 y T C ! V A N N N d d d c u 8 8 i J q K m y c c d 5 N 9.e.B 3 y u b M _ S =.! T aXhXhXhXhXhXhXhXhX",
"hXhXhXhXhXhXeX= = # + # # $ ; i m / M V N N A N v v d 2 @ @ o O U P @.z y y u d f N e.V.=.y y y w q e 9 l M ( dXhXhXhXhXhXhXhXhX",
"hXhXhXhXhXhXtX^ w.7.5 # # # 6 j R R C v A N B Z Z V v u $ 6 = = F ) XX~.2 2 u t f B 1.K.p.y i # H H | X.< j X.jXhXhXhXhXhXhXhXhX",
"hXhXhXhXhXhX(.s s 7.B.Z 3 $ ; l m / M N N B $.:.r.=.~ C d u g n R n M g g Y r t s <.+X+XA.N ( # > ; ~.-XK # /.hXhXhXhXhXhXhXhXhX",
"hXhXhXhXhXiXV s a 4 Z -.c 2 7 l T R M V A B =.:.N.N.>.;.B N N Z ` ` ! Q Q g d h -.'.+X[.'.M.R Q z l X.X.m M (.hXhXhXhXhXhXhXhXhX",
"hXhXhXhXhX,Xn s d v d Z n 8 8 l m m n v B B =.:.4.4.K.K.N.r.e.h.t.9.6.! Z A Z B 1.{.+X[.'.D.=.M M M N M _ g._.jXhXhXhXhXhXhXhXhX",
"hXhXhXhXhX3X~ s V ` 4 u d 8 7 w l z g v N B *.;.1.4.5.[.@X|.H.B.g.e.t.t.i.7.6.:.A.].{.+X[.A.M.%.! ! ~ 6.>.T..XkXhXhXhXhXhXhXhXhX",
"hXhXhXhXhX4XV t V v c 1 3 c 9 e l l b n N B *.;.<.1.5.{.+X+X[.J.S.h.y.x.I.x.w.1.H.A.'.+X@XK.G.j.9.6.6.w.h.Y.T.iXhXhXhXhXhXhXhXhX",
"hXhXhXhXhX4XV t V V 4 a f >.p w K z z v N N B $.&.<.p.M.{.|.|.|.|.R.P.I.I.i.B 1.M.D.A.+X@X{.E.T.t.q.6.e.j.V.T.tXhXhXhXhXhXhXhXhX",
"hXhXhXhXhX6X~ f w.A N 4 s >.C p K K k c v v N B $.B -.p.S.}.|.|.|.U.U.I.6.f <.'.@X@XA.{.@X{.E.!.h.t.t.y.V.V.T.7XhXhXhXhXhXhXhXhX",
"hXhXhXhXhXrX7.A t.*.6.3 t f ~ z L z p u c v N N Z B &.w.M.E.|. X|.W.B.~ g f M.[.%X$X'.'.|.{.H.Q.E.L.h.h.B.V.L.4XhXhXhXhXhXhXhXhX",
"hXhXhXhXhXsXL.V w.7.h f s % b Y Y z p u 5 c v N N Z %.:.m.S.!.Q.`.a.6.d u h a.A.|.|.A.H.$X#X|.!.S.!.c.h.h.j.h.:XhXhXhXhXhXhXhXhX",
"hXhXhXhXhXhX=XV a.*.h f c 3 j m Y z y y 5 u f v N Z %.%.r.B.W.W.P.t.h Q g f &.p.P.P.y.h.U.Q.U.h.h.B.h.h.h.g.8.:XhXhXhXhXhXhXhXhX",
"hXhXhXhXhXhXrX! w.a.h h $.d y m T z u t 4 u d v A Z B 6.w.y.I.L.x.i.~ ~ g t s f c u p V 9.x.t.b d ~ q.h.h.g.` :XhXhXhXhXhXhXhXhX",
"hXhXhXhXhXhXjX(.r d 7.d N v M T Y z k u y u u c v Z N Z 7.e.x.c.t.~ 6.6.9.v 3 2 y m T y g c u b n ` 8.q.s.8.` 5XhXhXhXhXhXhXhXhX",
"hXhXhXhXhXhXhXdX..t 3 3 B :.S L m z u u u 4 5 f v v A Z %.9.t.x.i.~ e.B.G.S y y y y x R Q F n M ` ` 8.q.q.d.' tXhXhXhXhXhXhXhXhX",
"hXhXhXhXhXhXhXhXfXXX` ! w.=.c L z z c g u 5 5 c n v v Z 6.7.y.z.8.d.L.F.Y.' 7 % $ $ 2 7 w = j / [ ' 8.8.8.8.{ aXhXhXhXhXhXhXhXhX",
"hXhXhXhXhXhXhXhXhXhXuXXXm y 7 K l l z u u u 5 d d f V Z =.9.t.z.d.L.L.j._ u b Y Y W ] ] R m i 7 ( 0.' 6.8.` X.gXhXhXhXhXhXhXhXhX",
"hXhXhXhXhXhXhXhXhXhXhXgX;X| +.J j p p k c u u c v c v ~ 6.w.h.q.t.L.c._ z Z 0...W ] [  .u.[ ^ ^ K  .{ ' 0.` (.hXhXhXhXhXhXhXhXhX",
"hXhXhXhXhXhXhXhXhXhXhXhXhXhX&XJ j 9 y u u c c c b d v Z 7.t.h.g.V.c.{ x b ] W T Y Y Y ^ u.^ W W } ( l.0.0.' :XhXhXhXhXhXhXhXhXhX",
"hXhXhXhXhXhXhXhXhXhXhXhXhXhX&Xj q 8 y y u u c c d n n N 6.e.g.t.j.L.R Y T Y Y C [ >.` ` ~ ^ Q Q ( L ..l.{ { yXhXhXhXhXhXhXhXhXhX",
"hXhXhXhXhXhXhXhXhXhXhXhXhXhX>XG q 0 7 9 y u u c c n n V %.9.y.t.t.c.R Y K K k.2X1X8X1XoXoXu.Q ^ ] z E k.d.{ jXhXhXhXhXhXhXhXhXhX",
"hXhXhXhXhXhXhXhXhXhXhXhXhXhXqXF 0 ; 7 7 8 y u k c n n v Z 7.y.q.g.0.p Y y ^ -X9X6XtX8X9X7X3X^ ^ / L K l.{ (.hXhXhXhXhXhXhXhXhXhX",
"hXhXhXhXhXhXhXhXhXhXhXhXhXhXdX| > ; $ 7 7 y 3 y u b b n V 6.9.t.s._ T ' ] Q ~.(.oX-X2X6X8X4Xu.Q m Y z [ } ;XhXhXhXhXhXhXhXhXhXhX",
"hXhXhXhXhXhXhXhXhXhXhXhXhXhXhX>X- # = < 6 8 2 9 y u c b b ! 6.8.0.W R 0.g.z.z.u.x.v.v.v.^.v...[ b / z } } 7XhXhXhXhXhXhXhXhXhXhX",
"hXhXhXhXhXhXhXhXhXhXhXhXhXhXhXgX+.+ # # $ ; 7 2 8 y u u p b R _ _ T _ z.g.t.q.k.b.x.^.^.v.v.l.o.[ ] Y ] l.aXhXhXhXhXhXhXhXhXhXhX",
"hXhXhXhXhXhXhXhXhXhXhXhXhXhXhXhXgXO.O + # $ $ 6 8 y r y y l m T K y R g.t.q.i.~ ~ u.^.^.v.v.l.{ ' { T _ XXhXhXhXhXhXhXhXhXhXhXhX",
"hXhXhXhXhXhXhXhXhXhXhXhXhXhXhXhXhXjX#.+ + # $ $ = 8 9 8 9 y l J w w K { 9.i.6.6.g 8 y F z b n C 0.[ z m wXhXhXhXhXhXhXhXhXhXhXhX",
"hXhXhXhXhXhXhXhXhXhXhXhXhXhXhXhXhXhXjX*X+ # # # $ < 7 8 9 9 i l > ; w Y 6.6.6.6.6.g 8 % 7 9 n ! ' R w X.jXhXhXhXhXhXhXhXhXhXhXhX",
"hXhXhXhXhXhXhXhXhXhXhXhXhXhXhXhXhXhXhXjX&X@ O # # $ $ 6 7 9 9 w < > ; w F ! 6.6.i.6.^ Y R ` C C M e 9 5XhXhXhXhXhXhXhXhXhXhXhXhX",
"hXhXhXhXhXhXhXhXhXhXhXhXhXhXhXhXhXhXhXhXhX0X> + # # # $ 6 e e j 7 : ; 0 8 z ! ~ N ! R ^ b C n J e # | hXhXhXhXhXhXhXhXhXhXhXhXhX",
"hXhXhXhXhXhXhXhXhXhXhXhXhXhXhXhXhXhXhXhXhXhXeXI @ O # # < 7 e ; ; - - - q J W _ ] W K i q l q : & 0 5XhXhXhXhXhXhXhXhXhXhXhXhXhX",
"hXhXhXhXhXhXhXhXhXhXhXhXhXhXhXhXhXhXhXhXhXhXhXaX+.+ @ + # = 0 ; * - - q F G J J W E R F q F > & O #.jXhXhXhXhXhXhXhXhXhXhXhXhXhX",
"hXhXhXhXhXhXhXhXhXhXhXhXhXhXhXhXhXhXhXhXhXhXhXhXhX0XI o O + + o O - # q F F F w J L K w 0 = : & : yXhXhXhXhXhXhXhXhXhXhXhXhXhXhX",
"hXhXhXhXhXhXhXhXhXhXhXhXhXhXhXhXhXhXhXhXhXhXhXhXhXhXfX*X: o o o o O - - q q F q J w w q 0 : : & U jXhXhXhXhXhXhXhXhXhXhXhXhXhXhX",
"hXhXhXhXhXhXhXhXhXhXhXhXhXhXhXhXhXhXhXhXhXhXhXhXhXhXhXhXyXI     o O * - > = , q q ; 0 0 , : & o ,XhXhXhXhXhXhXhXhXhXhXhXhXhXhXhX",
"hXhXhXhXhXhXhXhXhXhXhXhXhXhXhXhXhXhXhXhXhXhXhXhXhXhXhXhXhXhXwXH . o O o & & * > = = * > ; & o U hXhXhXhXhXhXhXhXhXhXhXhXhXhXhXhX",
"hXhXhXhXhXhXhXhXhXhXhXhXhXhXhXhXhXhXhXhXhXhXhXhXhXhXhXhXhXhXhXpXU       o o O * & * + * & o I wXhXhXhXhXhXhXhXhXhXhXhXhXhXhXhXhX"
};
