/* XPM */
static char *result[] = {
/* columns rows colors chars-per-pixel */
"64 64 240 2 ",
"   c #040303",
".  c #0A0505",
"X  c #0D0A0A",
"o  c #0D0807",
"O  c #130605",
"+  c #120807",
"@  c #1B0907",
"#  c #130C0B",
"$  c #1B0C0B",
"%  c #1D0604",
"&  c #1B110E",
"*  c #18100C",
"=  c #141111",
"-  c #1B1413",
";  c #1D1A19",
":  c #1F1817",
">  c #220B06",
",  c #230D0A",
"<  c #2C0D07",
"1  c #360E08",
"2  c #25120D",
"3  c #2A150D",
"4  c #3B140C",
"5  c #37160C",
"6  c #231512",
"7  c #2B1512",
"8  c #211817",
"9  c #2C1914",
"0  c #241B1A",
"q  c #2B1D1A",
"w  c #321710",
"e  c #341C14",
"r  c #3B1C13",
"t  c #341C18",
"y  c #2B211E",
"u  c #25201F",
"i  c #34211C",
"p  c #3C221A",
"a  c #3E2114",
"s  c #2B2423",
"d  c #2B2525",
"f  c #3A2A26",
"g  c #352926",
"h  c #3B3635",
"j  c #441C0F",
"k  c #4A1B0C",
"l  c #46150C",
"z  c #571C0B",
"x  c #421C12",
"c  c #4D1D11",
"v  c #431411",
"b  c #5B1E11",
"n  c #601C0A",
"m  c #5C210E",
"M  c #4C2315",
"N  c #44251B",
"B  c #4C2A1D",
"V  c #492517",
"C  c #542414",
"Z  c #5B2412",
"A  c #522719",
"S  c #542A1C",
"D  c #5C2B1B",
"F  c #592A17",
"G  c #5D331B",
"H  c #67260E",
"J  c #622513",
"K  c #652A14",
"L  c #6A2B13",
"P  c #632D1B",
"I  c #6B2D1A",
"U  c #60241A",
"Y  c #732E14",
"T  c #6E3117",
"R  c #64331B",
"E  c #6C321C",
"W  c #6C3A1D",
"Q  c #673117",
"!  c #743216",
"~  c #73351B",
"^  c #743A1E",
"/  c #7B3C1C",
"(  c #7B3716",
")  c #77300E",
"_  c #472B26",
"`  c #552D22",
"'  c #48332B",
"]  c #5D3424",
"[  c #583729",
"{  c #453935",
"}  c #593C33",
"|  c #623521",
" . c #6C3D22",
".. c #643C2B",
"X. c #693927",
"o. c #743C22",
"O. c #7A3E22",
"+. c #773928",
"@. c #6C372B",
"#. c #77461E",
"$. c #51413C",
"%. c #694427",
"&. c #754124",
"*. c #7C4324",
"=. c #7C4924",
"-. c #7B452A",
";. c #75442C",
":. c #6C4432",
">. c #684536",
",. c #784835",
"<. c #7D5136",
"1. c #7C5128",
"2. c #534746",
"3. c #4B4847",
"4. c #765A55",
"5. c #6F564D",
"6. c #65615E",
"7. c #786866",
"8. c #736E6D",
"9. c #833D18",
"0. c #813F25",
"q. c #87421D",
"w. c #914A1D",
"e. c #81541F",
"r. c #834323",
"t. c #894624",
"y. c #844B25",
"u. c #8C4B25",
"i. c #844C2B",
"p. c #8C4C2B",
"a. c #84462A",
"s. c #914F2A",
"d. c #914E25",
"f. c #845423",
"g. c #8C512C",
"h. c #8C5A2D",
"j. c #86522E",
"k. c #94532D",
"l. c #9A552C",
"z. c #9C592D",
"x. c #975527",
"c. c #884C35",
"v. c #8C5432",
"b. c #8B563C",
"n. c #895739",
"m. c #935533",
"M. c #935A34",
"N. c #9B5B33",
"B. c #955D3A",
"V. c #9A5D3B",
"C. c #985735",
"Z. c #914A30",
"A. c #A25929",
"S. c #A25F32",
"D. c #A55D38",
"F. c #9D623D",
"G. c #96613B",
"H. c #A56235",
"J. c #A3643B",
"K. c #A9663A",
"L. c #AC6A3C",
"P. c #A5673A",
"I. c #B1693D",
"U. c #B26935",
"Y. c #8C4E44",
"T. c #895946",
"R. c #965A43",
"E. c #935C54",
"W. c #A25D48",
"Q. c #966342",
"!. c #9D6442",
"~. c #9A6748",
"^. c #856354",
"/. c #9E6D52",
"(. c #946757",
"). c #8F6048",
"_. c #A26543",
"`. c #A46943",
"'. c #AC6D43",
"]. c #A46C4B",
"[. c #AA6D4A",
"{. c #A4654B",
"}. c #B06D42",
"|. c #B26E4C",
" X c #AD7046",
".X c #AD724B",
"XX c #A87349",
"oX c #B37143",
"OX c #B3754C",
"+X c #B5784E",
"@X c #BA794C",
"#X c #B97546",
"$X c #A46A53",
"%X c #AD7453",
"&X c #A8755A",
"*X c #B27653",
"=X c #B37A53",
"-X c #BC7D53",
";X c #B97A58",
":X c #827E7E",
">X c #937469",
",X c #A77B6A",
"<X c #B37564",
"1X c #C07F5A",
"2X c #BE8155",
"3X c #BC825B",
"4X c #B68059",
"5X c #98827C",
"6X c #BB8967",
"7X c #B78A72",
"8X c #C2845B",
"9X c #C08156",
"0X c #C28A65",
"qX c #C48C6A",
"wX c #C78864",
"eX c #C8916E",
"rX c #C69374",
"tX c #C99679",
"yX c #8B8887",
"uX c #928987",
"iX c #969494",
"pX c #A99D9B",
"aX c #BB9892",
"sX c #B39189",
"dX c #AAA6A6",
"fX c #B4A8A7",
"gX c #B9B6B5",
"hX c #C69D8C",
"jX c #D1A593",
"kX c #CDB4AD",
"lX c #DAC4BD",
"zX c #C9C6C6",
"xX c #D2CDCD",
"cX c #DBC9C8",
"vX c #D7D5D5",
"bX c #E1D0CB",
"nX c #EBE8E7",
"mX c #F1EDED",
"MX c #F7F7F7",
"NX c #F8F8F8",
/* pixels */
"MXMXMXMXMXMXMXMXMXMXMXMXMXMXMXMXMXMXMXMXMXMXMXMXmXxXiXg X   X 3.iXzXMXMXMXMXMXMXMXMXMXMXMXMXMXMXMXMXMXMXMXMXMXMXMXMXMXMXMXMXMXMX",
"MXMXMXMXMXMXMXMXNXMXMXMXMXMXMXMXMXMXMXMXMXMXMXmX8.; X X = ; ; d h d iXgXgXmXMXMXMXMXMXMXMXMXMXMXMXMXMXMXMXMXNXMXMXMXMXNXMXMXMXMX",
"MXMXMXMXMXMXMXMXMXMXMXMXMXMXMXMXMXMXMXMXMXgX8.h h ; X X g d h g h u o   X $.zXvXzXmXMXMXMXMXMXMXMXMXMXMXMXMXMXMXMXMXMXMXMXMXMXMX",
"MXMXMXMXMXMXMXMXMXMXMXMXMXMXMXNXMXMXxX6.6.; - y ; X u u g u $.f $.i ; * X X = = X h dXMXMXMXMXMXMXMXMXMXMXMXMXMXMXMXMXMXMXMXMXNX",
"MXMXMXMXMXMXMXMXMXMXMXMXMXMXMXMXMXnXg X   X * i X o ' B S ] G %.#.$.h : = X           iXMXMXMXMXMXMXMXMXMXNXMXNXMXMXMXMXMXMXMXMX",
"MXMXMXMXMXMXMXNXMXMXMXMXMXMXMXMXMXdX+   X   > a a N ..R  .#.=.#.#.%.%.$.$.u = = # o - ; gXMXMXMXMXMXMXMXMXMXMXMXMXMXNXMXMXMXMXMX",
"MXMXMXMXMXMXMXMXMXMXMXMXMXMXMXMXxX$.- o   * B R #.#./ =.*.#.y.f.1.1.1.#.%.[ y - # * . # * dXMXMXMXMXMXMXMXMXMXMXMXMXMXMXMXMXMXNX",
"NXMXMXMXMXMXMXMXMXMXMXNXMXMXMXnX2.u o > 5 %.W #.#.#.*.y.-.y.g.g.h.e.e.1.1.1.G a @ # # + # u xXMXMXMXMXMXMXMXMXMXMXMXMXMXMXMXMXMX",
"MXMXMXMXMXMXMXMXMXMXMXMXMXMXMX7.0 + , B #.#.y.q.y.u.p.y.i.v.g.M.S.P.h.h.j.1.#.%.C > 3 3 2 & 6.MXMXNXMXMXNXMXMXMXMXMXMXMXMXMXMXMX",
"MXMXMXMXMXMXMXMXMXMXMXMXMXMXdXy - 3 F #.e.e.y.y.u.p.m.M.B.B.B.M.h.h.h.G.M.h.1.=.%.< 3 a * : - yXMXMXMXMXMXMXMXMXMXMXMXMXMXMXMXMX",
"MXMXMXMXMXMXMXMXMXNXMXMXMXMX$.7 N G #.f.q.i.y.g.m.N.M.V.V.R.!.F.G.G.G.G.G.B.v.1.#.F w 3 * + : s yXMXMXMXMXMXMXMXMXNXNXMXMXMXMXNX",
"MXMXMXMXMXMXMXMXMXMXMXMXMXuX9 e R #.y.y.s.h.m.B.F.F.J.F.].`.`._.G.G.XXP.F.B.M.h.f.Q j e 2 : - = d gXMXMXMXMXMXMXNXNXMXNXMXMXMXMX",
"MXMXMXMXMXMXMXMXMXMXMXMXpX& $ F #.y.i.g.M.G.G.`.].%X`.`.$XXX`._.P.~.F.~.G.G.n.v.f.&.j r 3 - * # u 3.vXMXMXMXMXMXMXMXMXMXMXMXMXMX",
"MXMXMXMXMXMXMXMXMXMXMXzXs O 5 W y.j.g.g.M.!.F.!.%X.X[.XX.XXX[.`.~.P.~.F.G.G.M.j.1.=.c M a 8 * X = ; :XMXMXMXMXMXMXNXMXMXMXMXMXMX",
"MXMXMXMXMXMXMXMXMXMXnX$.+ # V &.y.j.g.k.N.F.`.].%X.X*X%X*X*X.X_.F.F.`.~.F.M.M.j.1.*.R B N + o o X # = yXMXMXMXMXMXMXMXMXMXMXMXNX",
"MXMXMXMXMXMXMXMXMXMXuX8 # w F =.i.i.g.M.N.P. X%X+X*X*X*X%X.X[.`.F.F.F.F.G.M.h.i.-.=.~ G M %   .         vXMXMXMXMXMXMXMXMXMXMXMX",
"MXMXMXMXMXMXMXMXMXMX3.. % w G #.y.p.s.x.G.H..X.X X X'. X X X.X.X`.`.F.F.V.M.j.1.=.#.^ W C > . .         dXNXNXMXMXMXMXMXMXMXMXMX",
"MXMXMXMXMXMXMXMXmXnX8 . , x R &.y.i.g.M.S.J. X.XL. XOXOX+X+X.X+X'.`.P.J.F.g.j.j.i.*.W ^ m 1 %       o   :XNXNXMXMXMXMXMXMXMXMXMX",
"MXMXMXMXMXMXMXMXMXgX. . % j R o.*.i.k.k.N.H.P. X.X4X X@X2X=XOX+X.X X X XP.F.G.h.p.*.W E ~ k < . . # # . h vXMXMXMXMXMXNXMXMXMXNX",
"MXMXMXMXMXMXMXMXMX2.. . > c E *.=.r.u.k.z.F.P.'. XOX@X2X0X3X;X-X+X+X+X XXX`.P.~.M.i.#.Q W K < . X * # + X yXMXMXMXMXMXMXMXMXMXMX",
"MXMXMXMXMXMXMXMXMX& 6 . < C W &.*.r.h.M.N.J. XOX4X2X@X3X6X0X6X6X4X=X=XXXXXXX~.G.n.%.%.W R E k % + # - # + 8.MXMXMXMXNXMXMXMXMXMX",
"MXMXMXMXMXMXMXMXNX7.@ . < P  . .=.f.N.G.J.L.OX+X2X3X4X0XqX0X0X6X6X6X6X/.G.n.>.:.[ [ G B S F Z 4 @ # $ O + yXMXMXMXMXMXMXMXMXMXMX",
"MXMXMXMXMXMXMXMXMXpX, . 1 R E ^ i.M.P.P.'.XX4X4X6X0XeXtXtXrXrXrX7X7X>X<...` p { _ G ] M r C F j > + @ + # uXMXMXMXMXMXMXMXMXNXMX",
"MXMXMXMXMXMXMXMXMXcX3 O 4 R R  .1.B.G.F.~.XX4X7XrXrXrXtXtXtXtXtXtX7X/.n.;.] %.;.M.v.u.*.E M A C 2 $ 2 + = iXMXMXMXMXMXMXMXMXMXMX",
"MXMXMXMXMXMXMXMXMXMXf O v P F S [ ..>.:...:.).4X7XtXqXtXtXtXtXrX7X4XL.h.f.u.k.m.m.k.r.9./ K A A 5 $ 2 2 C pXMXMXMXMXMXMXMXNXMXMX",
"MXMXMXMXMXMXMXMXMXMX4.% v D x N p f p N B B %.Q.=X6XqXeXrXeXeX0X4XL.z.w.k.!.!.!.Q.m.r./ ) L Z S r @ < c 0.sXMXMXMXMXMXMXMXMXMXMX",
"MXMXMXMXMXNXMXMXMXMXkX@ v c c |  . .] R  .W *.u.P.@X3X0XqX0X0X@XU.A.w.N.XX$X/.).c.o.E L L H L ] B , 4 *.^ ,XMXMXMXMXMXMXMXMXMXMX",
"MXMXMXMXMXMXMXMXMXMXMX_ v c R *.*.q.r.g.p.q.9.9.w.S.I.2X8X0X0XOXA.e.w.OX{.R.R.T.<.E C k z n H Z B , c i.O.,XNXNXNXMXMXMXMXMXMXMX",
"MXMXMXMXMXMXMXMXMXMXNXsXv b Y Y ~ r.m.Q.~.].!.a.) q.x.#XwXeX0XoXw.w.V.W.p.p.b.^.:.R R z 1 l z K ` 3 c O.d.{.mXNXMXNXMXMXMXMXMXMX",
"MXMXMXMXMXMXMXMXMXMXmX@.v b n J T K E ;.b.c.c.B.d.( q.H.2X0X2XL.w.w._.m.p...9 + O t e @ l k K L A r k Y w.l.kXNXMXMXMXMXMXNXMXMX",
"MXMXMXMXMXMXMXMXMXMXmX0.1 J n z 4 F &.T.T.<.a.r.h.u.) k.oX=XOXI.d.w._.a.c.&X(._ c a.r.! H n I L F N 4 b 9.w.*XMXMXMXMXMXMXMXMXMX",
"MXMXMXMXMXMXMXMXMXMXNX>Xv U z v k Z 3 o s 6 >X;.b.J.) u.H. X'.K.x.w.9.b.&X&X&X&X{.l.q.) m L E K P A 4 O.A.U.K.cXMXMXMXMXMXMXMXMX",
"MXMXMXMXMXMXMXMXMXMXNXaXb Z z 1 > _ ^.3 3 ..$XV.b./ 9.s.D.H.K.S.S.z.z.d.F.!.].[.N.t.! ~ O.r.O.I E A x O.;X#XtXjXNXMXMXMXMXMXMXMX",
"MXMXNXMXMXNXMXMXMXMXNXjXb b m c J ~ 9.r.~.,X&X[.!.t.u.s.K.U.}.K.l.H.L.L.H. X*X;X;XOX'.K.J.k.r.( o.D j / _.eX1X<XMXMXMXMXMXMXNXMX",
"MXMXMXMXMXMXMXMXMXMXNXsXz U U Z J Y ( 9.m.{.&X].l.z.p.s.L.oX#XU.x.z.K.I.oXoXOX3XwX8X9X@XoXN.u.0.o.P 4 / D.<XD.V.MXNXNXMXMXMXMXMX",
"MXMXMXMXMXMXMXMXMXMXNX&Xn I I I ~ O.t.l.D.|.`.K.z.x.x.s.[.@X1XU.N.s.l.H.L.@X#X+X8X8X9X#XK.z.d.r.O.D r &.t.C.N.m.mXNXNXMXMXMXMXMX",
"MXMXMXNXNXMXMXMXMXMXMXZ.Y @.I ! t.x.S.H.H.K.K.K.z.C.g.M.1X1X#X1X'.d.l.z.K.@X8X8X@X@X@X#X}.S.u.r./ S r -.( S.v.C.mXMXMXMXMXMXMXMX",
"MXMXMXMXMXMXMXMXMXMXbX|.Z.+.+.0.k.H.L.I.'.L.}.K.H.L.s.'.1XwX1X1XOXz.u.N.L.OX2XwX8X9X-X@XoXS.k.q.^ A 4 O.p.s.p.!.NXMXMXMXMXMXMXMX",
"MXMXMXMXMXMXMXMXNXNXkX1XW.@.O.r.m.L.L.}.[.-XOX+XD.k.m.*XwXwXtXwX-XK.l.p.C.@X2X8X8X2X@X@XoXH.k./ I A c ^ p.t.p.(.NXNXMXMXNXMXMXMX",
"MXMXMXMXMXMXMXNXNXNXlXl.9.P ~ 0.s.N.OX-X-X8X1XoXg.m.J.*XwXjXkXeX|.I.oX'.C.-X9X2X2X2X@X}.H.k.q.( P S j X.m.p.p.aXMXNXMXMXMXMXMXMX",
"MXMXMXMXMXMXMXMXMXMXmXC.0.U +.0.k.J.+X=X+X1X-X}.V.J.l.l.;XtXtX1Xl.*.i.S.l.%X;X1X@X@XI.L.M.q.q.( I ` c D V.c./.nXMXMXMXMXMXMXMXNX",
"MXMXMXMXMXNXMXMXMXMXNXW.Z.E I 9.r.z.'.oXOX@XI.oXt.^ ` 2 +.}.|.=.> O F O.9.[.OX@X@XI.J.x.u.r./ ! I ` c 6.hXkXmXMXMXMXMXMXMXMXMXMX",
"NXMXMXMXMXMXMXMXMXMXNX&XZ.I D I / u.z.H.L.I.K.'.V.O.r.a.0.+.0.I 0.a.C.t.m.}.L.L.L.K.C.d.t.q./ ! K P [ xXMXMXMXMXMXMXMXMXMXMXMXMX",
"MXMXMXMXMXMXMXMXMXMXNX,Xc.a.U I ! ( / u.z.z.z.F.C.-.` ] b.v.p.V.&XT.b.b.B.L.L.L.H.z.p.u.r./ / T K D >.mXMXMXMXMXMXMXMXMXMXMXMXMX",
"MXMXMXMXNXMXMXMXMXMXMXaXZ.C.I I H ! L ^ q.u.v.o.+.p t t _ ..,...>.>.} @.n.!.F.B.k.p.r.r.( / ^ ! I D 4.MXMXMXMXMXMXMXMXMXMXMXMXMX",
"MXMXMXMXMXMXMXMXMXMXMXmXaXY.Y.+.H H H J ! | ] _ 9 9 # # q q u 8 g ' _ f _ :.,.,...o.^ O.~ ^ ! ~ I D >XMXMXMXMXMXMXMXMXMXMXMXMXMX",
"MXMXMXMXMXMXMXMXMXMXMXMXMXnXmX,XK H H m A 6 0 o . = X = # . = o : y - - - s 9 9 g { | ~ I ^ ~ ~ L D >XNXMXMXNXMXMXMXMXMXMXMXMXMX",
"MXNXMXMXNXMXMXMXMXMXMXMXMXMXMXkXY L H Z 9 ; # = $ X - - 0 # + - 0 u = 8 # 6 8 : s s t E I o./ / I D uXNXMXMXMXMXMXMXMXMXMXMXNXMX",
"MXMXMXMXMXMXMXMXMXMXMXMXMXMXMXlX+.L H Z $ = X # x ` @.>.5.Y.E.T.T.@.[ [ N i q X 8 = = P ~ O.O./ K A fXMXMXMXMXMXMXMXMXMXMXMXMXMX",
"MXMXMXMXMXMXMXMXNXMXMXMXMXMXMXnXc.( ) L , . 7 r ` S ..@.@.+.R.c.+.0.+.+.E P C p p 6 $ D  .r.O.~ K ` xXMXMXMXMXMXMXMXMXMXMXMXMXMX",
"MXMXMXMXMXMXMXMXMXMXMXMXMXMXMXMXE.( ( ~ 4 $ ` ;.O.@.+.Y.Y.Y.Y.Y.(.E.Y.b.c.r.*.a.Y.` 7 Z o.O.O.E A 4.nXNXMXMXMXMXMXMXMXMXMXMXMXMX",
"MXMXMXMXMXMXMXMXMXMXMXMXMXMXMXMXaXI 9./ A 9 ] c.-.m.R.R.$X<X<X<X<X<X{._.C.u.r.R.B.%.e C I ~ ^ P ` kXMXNXMXMXMXMXMXMXMXMXMXMXMXMX",
"MXMXMXMXMXMXMXMXMXMXMXMXMXMXMXMXcX+.Y O.K 7 S i.+.i.v.m.c.@.@...} +.5.+.a.r.m.M.v...t c I ~ E M >XmXMXMXMXMXMXMXMXNXMXMXMXMXMXMX",
"MXMXMXMXMXMXMXNXMXMXMXMXMXMXMXMXMX,XL Y I w V ;.-.a.a.;.] g g 0 0 i _ +.s.p.p.p.,.B 9 Z Y I Z ` vXMXMXMXMXMXMXMXMXMXMXMXMXMXMXMX",
"MXMXMXMXMXMXMXMXMXMXNXMXMXMXMXMXMXvXI L K v r +.-.+.r.a.o.' s g y 0 x Z.m.m.g.c.-.B 3 Z K Z v fXMXMXMXMXMXMXMXMXMXMXMXMXMXMXMXNX",
"NXMXMXMXMXMXMXMXMXMXMXMXMXMXMXMXMXMXaXb J 4 7 P a.&.i.p.m.c.B s u g ,.!.J.F.v.i.o.t 5 Z b ] gXMXMXMXMXMXMXMXMXMXMXMXMXMXMXMXMXMX",
"MXMXMXMXMXMXMXMXMXNXMXMXNXMXMXMXMXMXmX7.l c @ V O.v.M.J.`.].&X@.' [ W.[.[.!.n.i.| 9 w c 4.nXMXMXMXMXMXMXMXMXMXMXMXMXMXMXMXMXMXMX",
"MXMXMXMXMXMXMXMXMXMXMXMXMXMXMXMXMXMXMXmX>Xx @ 7 R ;.v.n.B./.&X5.' } 5.T.!.,...X.N X 6 fXmXMXMXMXMXMXMXMXMXMXMXNXMXMXMXMXMXMXNXMX",
"MXMXMXMXMXMXMXMXMXMXMXMXMXMXMXMXMXMXMXMXNXfX9 - t ] | -.<.,.T.5.g { } } [ N i t s . 3.MXNXNXMXMXMXMXMXNXMXMXMXMXMXMXNXMXMXMXMXMX",
"MXMXMXNXMXMXMXMXMXMXMXMXMXMXMXMXNXMXMXMXNXNX7.  # 9 q N ' ' } ' ; g g t q 8 # - =   yXMXNXNXMXMXMXMXMXMXMXMXMXMXMXMXMXMXMXMXMXMX",
"MXMXMXMXMXMXMXMXMXMXNXNXNXMXMXMXMXMXMXMXMXMXdX  o X - d 8 - s q u ; s # - = # ;   d vXMXMXMXMXMXMXNXMXMXMXMXMXMXMXMXNXMXMXMXMXMX",
"MXMXNXMXNXMXMXMXMXMXNXNXMXMXMXMXMXMXMXMXMXMXvX; o   X # X X = - X X = X o X X   X dXMXMXMXMXMXMXMXMXMXMXMXMXMXMXMXMXMXMXMXMXMXNX",
"MXMXMXMXMXMXMXMXMXMXNXNXMXMXMXMXNXMXMXMXMXMXMXpXX X X   X X   X X   X   . .   X :XMXMXNXMXMXNXMXMXMXMXMXMXMXMXMXMXMXMXMXMXMXMXMX",
"MXMXMXMXMXMXMXMXMXMXNXmXNXMXMXMXMXMXMXMXMXMXNXNX:X-                       = 3.zXMXMXMXMXMXMXMXMXMXMXMXMXNXMXMXMXMXMXMXMXMXMXMXMX"
};
