/* XPM */
static char *_7010_e1ee097a7cce177e5131f95f227dc10318e16e2711f4ff26a06665756c4c4d00[] = {
/* columns rows colors chars-per-pixel */
"64 64 256 2 ",
"   c #065B11",
".  c #065E12",
"X  c #098A1A",
"o  c #0A9E1E",
"O  c #066212",
"+  c #065C11",
"@  c #0BA71F",
"#  c #0DC525",
"$  c #0BAA20",
"%  c #098419",
"&  c #0DBF24",
"*  c #0A9F1E",
"=  c #066012",
"-  c #076312",
";  c #077015",
":  c #087316",
">  c #076713",
",  c #065D11",
"<  c #0CB622",
"1  c #0BA820",
"2  c #076313",
"3  c #0A981D",
"4  c #0CB923",
"5  c #0DC224",
"6  c #0DC024",
"7  c #0DC425",
"8  c #0CBB23",
"9  c #087215",
"0  c #0CB121",
"q  c #0DC325",
"w  c #098619",
"e  c #0BA21E",
"r  c #09891A",
"t  c #0A991D",
"y  c #0A941C",
"u  c #0BAD21",
"i  c #0A9B1D",
"p  c #0CB722",
"a  c #0BAB20",
"s  c #076F15",
"d  c #0A8F1B",
"f  c #076B14",
"g  c #0CB021",
"h  c #098D1A",
"j  c #0BAE21",
"k  c #098B1A",
"l  c #0CBA23",
"z  c #09911B",
"x  c #0DBE24",
"c  c #0BA01E",
"v  c #076914",
"b  c #09931B",
"n  c #087817",
"m  c #0BA51F",
"M  c #088018",
"N  c #09881A",
"B  c #0BA31F",
"V  c #087D18",
"C  c #098C1A",
"Z  c #087315",
"A  c #0A9D1D",
"S  c #0CAF21",
"D  c #076613",
"F  c #098E1B",
"G  c #087917",
"H  c #076413",
"J  c #098218",
"K  c #087F18",
"L  c #076C14",
"P  c #0BA11E",
"I  c #087516",
"U  c #076A14",
"Y  c #087D17",
"T  c #065F12",
"R  c black",
"E  c black",
"W  c black",
"Q  c black",
"!  c black",
"~  c black",
"^  c black",
"/  c black",
"(  c black",
")  c black",
"_  c black",
"`  c black",
"'  c black",
"]  c black",
"[  c black",
"{  c black",
"}  c black",
"|  c black",
" . c black",
".. c black",
"X. c black",
"o. c black",
"O. c black",
"+. c black",
"@. c black",
"#. c black",
"$. c black",
"%. c black",
"&. c black",
"*. c black",
"=. c black",
"-. c black",
";. c black",
":. c black",
">. c black",
",. c black",
"<. c black",
"1. c black",
"2. c black",
"3. c black",
"4. c black",
"5. c black",
"6. c black",
"7. c black",
"8. c black",
"9. c black",
"0. c black",
"q. c black",
"w. c black",
"e. c black",
"r. c black",
"t. c black",
"y. c black",
"u. c black",
"i. c black",
"p. c black",
"a. c black",
"s. c black",
"d. c black",
"f. c black",
"g. c black",
"h. c black",
"j. c black",
"k. c black",
"l. c black",
"z. c black",
"x. c black",
"c. c black",
"v. c black",
"b. c black",
"n. c black",
"m. c black",
"M. c black",
"N. c black",
"B. c black",
"V. c black",
"C. c black",
"Z. c black",
"A. c black",
"S. c black",
"D. c black",
"F. c black",
"G. c black",
"H. c black",
"J. c black",
"K. c black",
"L. c black",
"P. c black",
"I. c black",
"U. c black",
"Y. c black",
"T. c black",
"R. c black",
"E. c black",
"W. c black",
"Q. c black",
"!. c black",
"~. c black",
"^. c black",
"/. c black",
"(. c black",
"). c black",
"_. c black",
"`. c black",
"'. c black",
"]. c black",
"[. c black",
"{. c black",
"}. c black",
"|. c black",
" X c black",
".X c black",
"XX c black",
"oX c black",
"OX c black",
"+X c black",
"@X c black",
"#X c black",
"$X c black",
"%X c black",
"&X c black",
"*X c black",
"=X c black",
"-X c black",
";X c black",
":X c black",
">X c black",
",X c black",
"<X c black",
"1X c black",
"2X c black",
"3X c black",
"4X c black",
"5X c black",
"6X c black",
"7X c black",
"8X c black",
"9X c black",
"0X c black",
"qX c black",
"wX c black",
"eX c black",
"rX c black",
"tX c black",
"yX c black",
"uX c black",
"iX c black",
"pX c black",
"aX c black",
"sX c black",
"dX c black",
"fX c black",
"gX c black",
"hX c black",
"jX c black",
"kX c black",
"lX c black",
"zX c black",
"xX c black",
"cX c black",
"vX c black",
"bX c black",
"nX c black",
"mX c black",
"MX c black",
"NX c black",
"BX c black",
"VX c black",
"CX c black",
"ZX c black",
"AX c black",
"SX c black",
"DX c black",
"FX c black",
"GX c black",
"HX c black",
"JX c black",
"KX c black",
"LX c black",
"PX c black",
"IX c black",
"UX c black",
/* pixels */
"                                                                                                                                ",
"                                                                                                                                ",
"                                                                                                                                ",
"                                                                                                                                ",
"                                                                                                                                ",
"                                                                                                                                ",
"                                                                                                                                ",
"                                                                                                                                ",
"                                                                                                                                ",
"                                                                                                                                ",
"                                                                                                                                ",
"                                                                                                                                ",
"                                                                                                                                ",
"                                                                                                                                ",
"                                                                                                                                ",
"                                                                                                                                ",
"                                                                                                                                ",
"                                                                                                                                ",
"                                                                                                                                ",
"                                                                                                                                ",
"                                                                                                                                ",
"                                                                                                                                ",
"                                                                                                                                ",
"                                                                                                                                ",
"                                                                                                                                ",
"                                                                                                                                ",
"                                                                                                                                ",
"                                                                                                                                ",
"                                                                                                                                ",
"                                                                                                                                ",
"                                                                                                                                ",
"                                                                                                                                ",
"                                                                                                                                ",
"                                                                                                                                ",
"                                                                                                                                ",
"                                                                                                                                ",
"                                                                                                                                ",
"                                                                        . X o O                                                 ",
"                                                                      + @ # # $                                                 ",
"                                                                      % # # & * =                                               ",
"                                                          - ; : > ,   < # 1 2                                                   ",
"                                                    ; 3 4 # # # # 5 $ # 6 2                                                     ",
"                                                = 3 7 # # # # # # # # # 8 9                                                     ",
"                                              - 0 # # # # # # # # # # # # q w                                                   ",
"                                              e # # # # # # # # # # # # # # # r                                                 ",
"                                              e t y t o u 7 # # # # # # # # # 7 9                                               ",
"                                              e # # # # 4 i i p # # # # # # # # a                                               ",
"                                            s # # # # # # # # a d a # # # # # # # f                                             ",
"                                            t # # # # # # # # # # g h j # # # # # k                                             ",
"                                            l # # # # # # # # # # # # j z x # # # c                                             ",
"                                          v # # # # # # # # # # # # # # q b a # # a                                             ",
"                                          n # # # # # # # # # # # # # # # # i m # a                                             ",
"                                          M # # # # # # # # # # # # # # # # # N x B                                             ",
"                                          V # # # # # # # # # # # # # # # # # 0 C f                                             ",
"                                          Z # # # # # # # # # # # # # # # # # 4                                                 ",
"                                          = 7 # # # # # # # # # # # # # # # # A                                                 ",
"                                            S # # # # # # # # # # # # # # # x D                                                 ",
"                                            F # # # # # # # # # # # # # # 7 G                                                   ",
"                                            H & # # # # # # # # # # # # 7 J                                                     ",
"                                              w # # # # # # # # # # # 5 K                                                       ",
"                                                A # # # # # # # # # $ L                                                         ",
"                                                , e # # # # # q P I                                                             ",
"                                                  + U Y k K s T                                                                 ",
"                                                                                                                                "
};
