/* XPM */
static char *result[] = {
/* columns rows colors chars-per-pixel */
"64 64 239 2 ",
"   c #522B25",
".  c #573C36",
"X  c #643C38",
"o  c #71372A",
"O  c #5C433B",
"+  c #69443C",
"@  c #65413B",
"#  c #77483C",
"$  c #6A4943",
"%  c #734B44",
"&  c #784C44",
"*  c #7B5346",
"=  c #7E5F45",
"-  c #7A534C",
";  c #76574B",
":  c #725C53",
">  c #7C5B53",
",  c #7C5855",
"<  c #6F514D",
"1  c #7C654D",
"2  c #7E6A52",
"3  c #7D635B",
"4  c #7B6B5D",
"5  c #7A6357",
"6  c #6B655A",
"7  c #7A6C66",
"8  c #736969",
"9  c #796D6B",
"0  c #766865",
"q  c #7D716B",
"w  c #796D72",
"e  c #7D7777",
"r  c #6B6867",
"t  c #8C4F3F",
"y  c #84554C",
"u  c #8C564D",
"i  c #835B4E",
"p  c #885547",
"a  c #95594C",
"s  c #845C53",
"d  c #8C5C53",
"f  c #8A5955",
"g  c #905B52",
"h  c #975F56",
"j  c #83654B",
"k  c #85694F",
"l  c #84644B",
"z  c #846555",
"x  c #846C54",
"c  c #8A6D54",
"v  c #84635D",
"b  c #8C645A",
"n  c #846D5A",
"m  c #8B6D5B",
"M  c #8D6156",
"N  c #9A6454",
"B  c #95655D",
"V  c #9C655B",
"C  c #946C5C",
"Z  c #9C6B5C",
"A  c #996656",
"S  c #8B7157",
"D  c #83715C",
"F  c #8D735B",
"G  c #8B7559",
"H  c #92745C",
"J  c #92795E",
"K  c #99715F",
"L  c #A2655B",
"P  c #A36B5C",
"I  c #A46758",
"U  c #A8705F",
"Y  c #846B64",
"T  c #8C6C64",
"R  c #836D6A",
"E  c #8B6D6A",
"W  c #876561",
"Q  c #936561",
"!  c #936C63",
"~  c #9A6B64",
"^  c #926D6A",
"/  c #9B6E6A",
"(  c #9C6762",
")  c #857463",
"_  c #8C7462",
"`  c #8D7964",
"'  c #83746C",
"]  c #8B736C",
"[  c #85796C",
"{  c #8C7C6C",
"}  c #877967",
"|  c #947463",
" . c #9C7464",
".. c #947C63",
"X. c #94726B",
"o. c #9D746B",
"O. c #947C6A",
"+. c #9B7C6B",
"@. c #9B7965",
"#. c #817572",
"$. c #847B74",
"%. c #8B7D73",
"&. c #867C7A",
"*. c #8C7673",
"=. c #937672",
"-. c #9D7B73",
";. c #997A76",
":. c #A36C63",
">. c #A76D65",
",. c #A47364",
"<. c #AB7465",
"1. c #AD7867",
"2. c #A3756B",
"3. c #AB746A",
"4. c #A47A6C",
"5. c #AC7A6C",
"6. c #A07A67",
"7. c #B07465",
"8. c #B3766A",
"9. c #B27B6D",
"0. c #B97D6F",
"q. c #A37C73",
"w. c #AC7D72",
"e. c #AA7F7A",
"r. c #A67772",
"t. c #B37E72",
"y. c #BA7E72",
"u. c #B27770",
"i. c #998266",
"p. c #95836C",
"a. c #9B856B",
"s. c #9C896D",
"d. c #968164",
"f. c #8D8272",
"g. c #8A847B",
"h. c #928373",
"j. c #9C8473",
"k. c #9C8A73",
"l. c #93867B",
"z. c #9A8D7C",
"x. c #998779",
"c. c #8C816F",
"v. c #A5836D",
"b. c #A58174",
"n. c #AB8275",
"m. c #A4837A",
"M. c #AB837B",
"N. c #A38A7B",
"B. c #AC897D",
"V. c #A08876",
"C. c #B58174",
"Z. c #BB8375",
"A. c #B4837B",
"S. c #BB857A",
"D. c #B48A7C",
"F. c #BC8A7C",
"G. c #B98877",
"H. c #A69077",
"J. c #C1867B",
"K. c #C38B7D",
"L. c #C88D7F",
"P. c #C4927E",
"I. c #7F7D81",
"U. c #8C8284",
"Y. c #8A8888",
"T. c #948B84",
"R. c #998987",
"E. c #98948A",
"W. c #9B9695",
"Q. c #8F8D93",
"!. c #A48681",
"~. c #AD8481",
"^. c #AC8B84",
"/. c #AD8C89",
"(. c #A58B87",
"). c #B38581",
"_. c #BA8581",
"`. c #B48B83",
"'. c #BD8C83",
"]. c #B48D89",
"[. c #BC8D8A",
"{. c #AB9486",
"}. c #BD9285",
"|. c #B4928B",
" X c #BB938B",
".X c #B79686",
"XX c #A69A95",
"oX c #BC9591",
"OX c #B89E9A",
"+X c #9FA19E",
"@X c #BDA48C",
"#X c #A7A39D",
"$X c #B7A696",
"%X c #ACACAB",
"&X c #A9A7A5",
"*X c #B3AAA6",
"=X c #B8B4AB",
"-X c #B9B7B5",
";X c #C38D83",
":X c #C98E83",
">X c #C18D8A",
",X c #C39284",
"<X c #CA9484",
"1X c #CA9986",
"2X c #C4948A",
"3X c #CB958A",
"4X c #C49A8E",
"5X c #CB9A8C",
"6X c #D19B8D",
"7X c #C69993",
"8X c #CB9C93",
"9X c #C49793",
"0X c #D39D94",
"qX c #C6A18D",
"wX c #CCA193",
"eX c #C3A695",
"rX c #D3A296",
"tX c #D6A49C",
"yX c #CAB1A9",
"uX c #C7BABA",
"iX c #C1AEAE",
"pX c #C0C0BC",
"aX c #BFC2C3",
"sX c #C9C7C5",
"dX c #D3CBCA",
"fX c #D8D2CF",
"gX c #D4D6D4",
"hX c #DBD5D4",
"jX c #D7D7D9",
"kX c #DDDCDB",
"lX c #CDCDD0",
"zX c #E2DDDC",
"xX c #E0DFE0",
"cX c #E4E3E3",
"vX c #EEEEEE",
"bX c #F0EDEC",
"nX c #F5F5F5",
"mX c #FEFEFE",
"MX c #F8F7F8",
/* pixels */
"mXmXnXnXnXnXmXmXnXvXnXmXmXnXnXcXaXE.g.c.c.s.i.s.i.d.J G G 2 1 2 2 2 2 4 D 4 ) ) ) ) } [ $.#XvXmXnXnXvXmXmXmXvXnXnXmXMXMXnXnXnXmX",
"vXvXnXmXmXnXvXvXmXmXmXvXvXvXgXW.z.s.d.s.s.d.i.s.i.J J d.G x 2 x 2 2 2 D x D ) D ) ) } [ f.f.T.-XvXmXmXvXvXvXmXmXMXvXvXnXmXmXnXvX",
"vXvXnXmXmXnXvXvXmXmXmXvXvXsXE.h.s.s.s.i.s.s.s.i.d.` G d.J G x x 2 2 2 2 x 4 D D ` ) } ` { f.g.U.-XvXmXvXvXvXmXmXmXvXvXnXmXmXnXvX",
"nXnXmXnXnXnXnXmXnXnXnXnXsXE.k.s.s.s.s.v.s.s.d.d.d.J J G J G G S G 2 2 2 2 D 2 D D D ) ) } f.x.l.T.W.kXnXMXnXMXMXnXnXnXMXmXMXnXnX",
"mXmXnXvXvXmXmXmXnXvXvXgX#Xz.k.p.v.i.s.i.i.v.i.i.d.J H S G S x x x 2 x x x x x D ` D D D ) } c.l.T.E.#XkXmXmXvXvXnXmXmXnXvXvXnXmX",
"mXmXnXvXvXmXmXmXvXvXdXz.s.s.d.d.J d.d.d.d.i.J d.J J J S S S S k x k c x x D x x G O...) D _ } h.l.h.T.E.sXnXvXvXnXmXmXmXvXvXMXmX",
"mXnXnXmXnXnXnXnXnXcXXXz.s.d.d.G G J J J G H G S H H J J H G S S x x n c F G G G G G ` ` D ) { O.h.%.c.l.E.-XnXMXnXnXnXmXnXnXnXmX",
"vXvXnXmXmXnXvXvXkXXXz.s.d.d.G x k k c c S c S c S S H H H G S S S x n F F ) G ` ` ..{ ..c.` { h.%.c.[ [ e g.%XMXmXvXvXnXmXmXnXvX",
"vXvXnXmXmXvXvXcX=Xz.k.s.a.d.G S k k j 1 j k k c c c S H H S S F c m F m m F _ ..| O.p.k.j.c.{ { c.c.q c.e c.g.%XxXvXvXnXmXmXnXvX",
"mXmXnXnXnXMXmX=Xz.s.s.s.i.d.S c k j j = p 1 j k c c c S S H m m m c m x m F ..O.O.O.j.j.j.j.p.{ c.c.c.} [ q e g.Q.W.gXnXvXnXnXmX",
"mXmXnXvXvXmXvXE.f.k.s.d.d.G S k k j l = = = j k c c C H H | C C c C c m c c _ +.j.+.O...O.O.O.{ c.} } q q q 7 q e g.Y.aXvXvXnXmX",
"mXmXnXvXvXmXlXg.p.H.s.d.S k S c k j c k j j j k c C H | | H J |  . .C C C C m _ | ..X.O._ _ _ } } c.c.} } q 7 8 0 r r %XvXvXMXmX",
"nXnXnXmXMXnX%Xc...i...F G S H H H H  . .H H c k k c K K  .@.,.,.@.,.K Z C H C ! ! C H m m T _ T _ { { [ [ ' q 9 8 r I.cXmXmXnXvX",
"vXvXnXmXmXnX#X4 x H ..@.i...H J J  .@.v.6.,.K H Z K K K  .6.6.,.6.,.U K Z A V C b M i i i s s z z 7 Y ' ' [ q q w e lXnXmXmXMXvX",
"vXvXnXmXmXnXE.: 5 O.k...| S m H H H @.+.6.6.4.4.6.K ,.,.U 6.1.<.<.U U U P A A N M g p p & * * - > 5 5 5 4 7 q e W.jXvXvXmXmXMXvX",
"mXmXnXvXvXMXY.; m V.` ....S S H H H H K  .6.6.4.1.5.C.v.C.C.C.0.C.9.9.7.<.>.P V P V A d u p i i > > 3 3 3 7 e U.jXmXmXmXvXvXMXmX",
"mXmXnXvXvXmXE.: z H ..O.F c x c m H | |  .,.6.2.1.Z.G.G.G.G.J.J.J.J.J.y.y.8.7.3.7.3.:.( V ( B b M v v Y R #.&.%XbXmXmXmXvXvXnXmX",
"mXmXmXvXvXmX&X; n ..a._ x x z c H  .@.@. .2.4.<.v.C.G.G.P.L.L.L.J.L.L.J.J.y.y.y.y.u.8.u.3.3.>.>.! ! n Y R *.U.cXnXmXmXmXvXvXMXmX",
"vXvXnXmXmXnX#X2 ] | O._ F _ F ..+.4.b.b.v.n.5.5.C.Z.P.P.1X1X1X6XL.L.L.L.J.J.;XJ.J.J.y.y.y.t.A.n.q.-.^ T E &.U.MXmXvXvXvXmXmXMXvX",
"vXnXnXmXmXnXE.{ j.+.a.O.| _ _ +.+.v.n.n.C.n.n.C.C.K.P.P.<X1X<X<XL.L.L.:X:X:XJ.y._.J.y.y.S._.D.).M.b.-.X.*.&.U.xXMXvXvXnXmXmXnXvX",
"vXvXMXmXmXnXg.O.j.j.O.| _ m | +.j.b.B.D.D.D.G.G.G.P.P.6X1X1X<X<X<XL.L.<X:X;XS.S.y._.y._.'.F._.`.B.^.^.m.%.&.U.aXmXvXvXvXmXmXmXvX",
"mXmXMXvXvXmX&.N.j._ T F _ m | V.B.D..X.X}.}.}.,XK.P.L.P.P.L.1X<XL.L.K.J.S.;X;X_.u.>X_._.;XM.q.q.m.m.j.;.=.#.I.&XnXmXmXmXvXvXnXmX",
"mXmXMXvXvXmX$.N.O._ n m m T | N.|.@X.X2X2X4X,X,XP.P.P.P.P.L.1X1X1X1X<X2X2X8X;X_.u._._.y.`.4. .m T T T Y { q e W.vXmXmXmXvXvXnXmX",
"mXmXMXvXnXcX$.N.O.n m _ _ _ X.N.eXeX.X}.2X1X1X,XP.P.P.P.P.1X1XqXqXwXqX4X.X).q.r.r._.u.r.! s > > 5 3 3 ) ] R w Q.cXmXmXnXnXnXnXmX",
"vXvXnXmXmXlXe h...n m m m b T N.yX9XD.'.<X1XP.,XF.P.F.F.P.P.F.}..XB.b.+.X.M s B >.r.3.B > * + X $ : 7 R R R w Y.kXvXvXvXmXmXmXvX",
"vXvXMXmXmX-X7 p._ n b z z z | B.eXM.D.K.P.P.K.F.F.F.F.G.D.D.H.4.o.m v s > & * C 3.w.w.b ; % < < $ . X : R 0 w Y.jXvXvXnXmXmXnXvX",
"vXnXMXmXmX&X6 N.j._ m z z F O.`.`.4.Z.S.K.K.K.G.G.G.F.F.F.D.o.T v > < + % & f t.S.2X2X .y T -.(.!.$ . $ Y 7 w Y.lXnXvXnXmXmXnXnX",
"mXmXnXvXvX&X[ {.N.O._ m T | +.B.q.t.Z.J.J.J.J.G.G.G.G.v.w.Z * & -     + - s 2._.2X8X4Xn.o.4.].7X/.0 ^ E =.R 8 I.jXmXmXmXvXvXnXmX",
"mXmXnXvXvX%Xl.(.b.+.F m T | -.b.o.D.A.Z.J.y.J.K.F.G.5.Z M # * o./ X X - r.w.A.'.5X5X2X`.M.q.~./.]././.!.x.] 8 Q.vXmXmXmXvXvXnXmX",
"nXmXnXmXMX&X' X.b m B C ! o.q. .r.D.y.Z.0.y.Z.K.F.G.5.6.G.5X7X7X].).~.e._.2X2X2X5X6X2X}.A.^.].oXoX|./.]./.*.8 jXnXnXnXnXnXnXnXmX",
"vXvXnXmXmX%X0  .b B Z Q  .o.4.o.r.A.S.Z.Z.0.J.K.1X1XF.,XwXwX8X7X9X].].).'.8X0X8X8XrX4X'.).|.].).).M.).].].N.XXmXmXvXvXnXmXmXnXvX",
"vXvXnXmXmXsX: q.B :.,.2.o.2.o.4.w.F.S.y.0.J.Z.K.1XwX,XF.,X8X8X8X9X[.A.A.7XrXrX6X,X0X8X2X).|.|.).~.).[.[.]./.xXmXmXvXvXnXmXmXnXvX",
"nXMXMXMXMXcX: D.>.3.y.G.2.o.q.q.A.'.S.Z.y.Z.Z.,X5X5X<XL.K.K.;X:XS.t.y.9X0X0X0X8X;X;X8X2X).~.oX9X9X9X>X[.].].xXMXMXnXnXnXMXMXMXMX",
"mXmXMXvXvXMX3 F.y.S._.3.u d A.'. X}.'.Z.y.t.K.3X<X<X6X6X<X<X3X:X_.S.>X3X3X3X3X:XJ.F.5X7X`.e.[.>X>X>X>X[.[.].dXvXvXmXmXmXbXvXMXmX",
"mXmXnXvXvXmXl.n.'.J.J.>.I P 7X4X4X}.'.S.Z.F.;X1X<X<X<X<X<X6X6XL.S.;XJ.:X3X:X>X;XF.S.2X8X[.e.).[.>X>X_.>X>XoXuXbXnXmXmXmXvXvXMXmX",
"nXnXnXmXMXnX{.D.}.;X:Xy.y.;XtX8X2XF.S.G.S.;X3X<XF.K.:X:X3X6XtX<XJ.y.y.;X:XJ.y.y.C.S.;X2X[.).M.]._.>X>X_.>X[.uXmXMXnXvXnXmXmXMXvX",
"vXvXnXmXmXvXXX@X2XF.3XK.:X>X0X8X XF.D.D.;X2X,XG.G.J.K.L.L.6XrX6XJ.J.y.0.y.y.>.8.S.F.>X>X].[.).)._.>X_._._.].iXmXmXvXvXvXmXmXMXvX",
"vXvXMXmXmXvX@XeX4XF.<X;X3X:X>X8X4X'.F.K.,X2X;XD.K.:XJ.K.L.L.6XL.J.J.0.8.8.7.0.y.y.y.2X;X_.].e.e._._._._.).~.OXmXmXvXvXnXmXmXMXvX",
"mXmXnXnXnXnX*X@XqX}.S.:X:X3Xt.;X2X}.'.,X;X;XG.F.K.K.J.J.K.P.L.P.J.0.8.7.I I 7.3.p u u.r.r.Q s ~ h ( r.r.r.r.(.nXnXMXmXMXvXnXnXmX",
"mXmXnXvXvXMXyX@X@XM.S.S.3X0X>X'.2X,XF.,XF.A.Z.S.K.J.J.G.K.K.K.J.J.8.I a N I U h o o u f y + % ( h y f V ( ( U.bXnXmXmXmXvXvXMXmX",
"mXmXnXvXvXmXsX@X.X| `.8XtX0X0X7X'.'.;X,XG.t.t.C.J.J.Z.C.Z.Z.Z.C.>.a a 7.Z.0.U I 7.D.>.u y f W e.q. .y # i f =.vXvXmXmXmXvXvXMXmX",
"vXvXmXmXmXnXgX$X{.+.@.7X;X;X>X3XF.'.'.F.S.C.t.C.C.Z.7.C.Z.7.7.I t I 0.J.L.L.K.K.,X,X}.'.).e.~.~.M.w. .p B / ;.mXmXvXvXvXmXmXMXvX",
"vXvXMXmXmXvXcXXX{.a.+.+.r.).'.>XA._.S.S.A.C.9.9.7.C.1.Z.C.U t a 7.0.J.J.L.K.K.P.;XF.D.D.).~.~.).-.M M ,.w.2.;.mXmXvXvXnXmXmXnXvX",
"vXvXMXmXmXnXvX*Xx.%.| ! T 2.w./ r.A.D.A.A.t.9.9.C.C.C.7.v.I t U U 0.J.y.G.K.F.F.F.F.'. X).!.q.-.! M w.D.5.o.(.mXmXvXvXvXmXmXmXvX",
"mXmXmXvXvXmXmXsXg.) F p.] T W - / _.A.C.C.u.5.9.9.C.1.C.C.U <.I I P U I I I U U 3.,.r.~ / / q.;.-.M.`.C.4.2.XXnXnXmXmXnXvXvXmXmX",
"mXmXnXvXvXmXmXcXY.4 7 h.{ R R W -._.C.9.5.9.<.<.7.C.1.C.1.9.C.1.Z.J.Z.Z.C.G.Z.G._.D.y.e.).).^.q.q.M.M.w.w.@.*XbXnXmXmXmXvXvXnXmX",
"mXmXnXvXvXmXmXmX-X6 4 ` ] ) #.R ;.).w.5.3.,.<.,.1.1.1.9.1.9.Z.Z.Z.Z.C.C.C.Z.G.G.F.S.u.2.~ W W ^ -.n.n.n.5.o.uXvXnXmXmXmXvXvXnXmX",
"vXvXnXmXmXnXvXvXnX%Xq R 9 #.W.sX/.~.w.1.,.,.>.P U U 7.1.1.1.1.1.C.Z.Z.1.U U P N g a u g h Q Q / q.n.n.5.2.X.hXmXmXvXvXnXmXmXmXvX",
"vXvXnXmXmXnXvXvXmXmXmXkXkXvXmXmXsXe.w.<.P C Z A P U <.1.1.<.7.9.Z.J.Z.9.<.U I <.t.;Xy._.A.r.o.r.M.M.5.4.o.X.zXmXmXvXvXvXmXmXnXvX",
"nXnXnXmXnXnXnXvXnXmXmXnXnXnXMXmXzX/.w.,.P A A I I P ,.<.<.<.5.C.Z.K.P.J.0.0.7.7.u.y.y.u.r.2.2.e.M.n.4.@.r.=.cXMXMXnXnXnXmXmXnXnX",
"mXmXnXvXvXmXmXmXnXvXvXmXmXmXvXvXvXXXb.3.P A Z I P P P ,.<.1.9.t.J.P.P.L.L.J.y.7.7.u.u.r.>./ / e.M.n.+.q.m.] cXvXnXmXmXmXvXvXnXmX",
"mXmXmXvXvXmXmXmXvXvXvXmXmXmXvXvXnXuXm.2.,.,.P :.P P P U <.8.C.Z.J.K.L.L.L.L.J.8.7.>.>.>.>./ / e.~.q.+.).e.=.vXvXvXmXmXmXvXvXMXmX",
"mXmXmXnXvXnXmXmXnXnXnXmXmXmXnXvXnXvXN.w.5.3.3.<.>.P >.,.<.C.S.G.Z.K.K.K.J.J.Z.8.L L L >.( ~ / e.~.+.m.M.j.R.vXnXnXnXmXmXnXnXnXmX",
"vXvXnXmXmXnXvXvXnXmXmXvXvXvXmXmXmXvXOXw.w.5.9.5.3.3.,.<.5.C.G.G.Z.G.G.G.S.J.Z.y.>.:.h ( Q Q ;.e.q.X.M.m.=.XXmXmXmXvXvXvXmXmXnXvX",
"vXvXnXmXmXnXvXvXmXmXmXvXvXvXmXmXMXvXuXw.w.9.t.9.9.3.3.3.9.t.t.Z.G.C.Z.Z._.F.y.u.>.( ( f f / -.m.-.| m.-.E *XmXmXmXvXvXnXmXmXnXvX",
"nXnXmXnXnXmXnXnXnXnXnXmXnXnXnXmXMXMXvXM.n.w.u.5.u.5.9.9.5.9.Z.Z.A.G.C.5.t.t.t.r.>./ ( f ^ ;.;.X.W X.-.E *.lXMXMXnXnXnXmXnXnXmXnX",
"mXmXnXvXvXmXmXmXnXvXvXmXmXmXvXvXnXmXmXyXM.w.t.t.t.9.t.t.u.w.y.G.G.A.C.5.2.3.4.2.2.~ b b E E E W v X.=.E R.nXvXvXnXmXmXmXvXvXnXmX",
"mXmXnXvXvXmXmXmXnXvXvXmXmXmXvXnXnXmXmXbX|.n.C.t.y.C.t.t.C.t.y.C.G.Z.C.w.4.,.,.~ ~ Q ^ X.E s , , W =.X.W uXmXvXvXnXmXmXmXvXvXnXmX",
"mXnXnXnXnXnXnXnXnXnXnXnXnXmXnXnXnXnXMXnXhX^.n.G.C.C.C.t.t.t.t.C.C.A.C.t.w.2. . .Q T W v , < < 3 ] X.Y #.cXMXnXnXnXnXnXnXnXnXnXmX",
"vXvXmXmXmXnXvXvXmXmXmXvXvXvXmXmXmXvXvXvXmXxX/.A.A.A.A.y.t.t.9.t.t.C.C.w.w.4.~ T s - $ $ @ $ , E E Y 0 gXvXvXmXmXmXvXvXnXmXmXnXvX",
"vXvXnXmXmXnXvXvXmXmXmXvXvXvXmXmXMXvXvXnXmXmXdX^.A.A.A.y.t.w.9.w.t.C.C.t.4.o.B - & + + $ - v E ^ R 0 sXvXvXvXmXmXmXvXvXnXmXmXnXvX",
"mXmXnXnXnXnXmXnXnXnXnXmXmXmXvXnXnXmXmXnXnXnXnXhX/.).A.y.t.5.9.u.t.C.t.5.2.Q d * $ % f ( / / =.E 9 iXvXmXmXmXnXnXnXnXmXnXnXnXnXmX",
"mXmXnXvXvXmXmXmXvXvXvXmXmXmXvXvXnXmXmXMXvXvXnXmXfX^.~._.A.C.t.t.t.t.A.w.2.B d y ( r.r.r.r.^ W U.hXvXbXmXmXmXvXvXvXmXmXmXvXvXnXmX",
"mXmXnXvXvXmXmXmXnXvXvXmXmXmXvXvXnXmXmXMXvXvXmXmXmXhX^._.F.A.C.t.t.t.u.2.Z M Q A.).~.r./ ^ R iXmXnXvXvXmXmXmXvXvXnXmXmXmXvXvXmXmX"
};
